<?xml version="1.0" encoding="UTF-8"?>
<svg width="31px" height="31px" viewBox="0 0 31 31" version="1.1" xmlns="http://www.w3.org/2000/svg" xmlns:xlink="http://www.w3.org/1999/xlink">
    <!-- Generator: Sketch 52.6 (67491) - http://www.bohemiancoding.com/sketch -->
    <title>icon/account</title>
    <desc>Created with Sketch.</desc>
    <g id="Symbols" stroke="none" stroke-width="1" fill="none" fill-rule="evenodd">
        <g id="component/navigation-bar" transform="translate(-1370.000000, -31.000000)" stroke="#DDAD26">
            <g id="icon/account" transform="translate(1371.000000, 32.000000)">
                <g>
                    <path d="M14.3999996,28.7999992 C6.45983115,28.7999992 1.0125234e-13,22.3401681 1.0125234e-13,14.3999996 C1.0125234e-13,6.45983115 6.45983115,0 14.3999996,0 C22.3401681,0 28.7999992,6.45983115 28.7999992,14.3999996 C28.7999992,22.3401681 22.3401681,28.7999992 14.3999996,28.7999992" id="Fill-1" stroke-width="1.5"></path>
                    <g id="Group-3" transform="translate(6.000000, 5.000000)">
                        <path d="M16.2562496,15.570588 C16.2562496,11.3961234 12.6100183,8 8.12812478,8 C3.64623131,8 0,11.3961234 0,15.570588 C0,15.8629292 0.25447283,16.0999998 0.568400335,16.0999998 C0.882327839,16.0999998 1.13680067,15.8629292 1.13680067,15.570588 C1.13680067,11.9800117 4.27312004,9.0588235 8.12812478,9.0588235 C11.9831295,9.0588235 15.1194489,11.9800117 15.1194489,15.570588 C15.1194489,15.8629292 15.3739786,16.0999998 15.6878492,16.0999998 C16.0017199,16.0999998 16.2562496,15.8629292 16.2562496,15.570588" id="Path" stroke-width="0.8" fill="#DDAD26"></path>
                        <path d="M8.06406239,8.09999979 C5.82311159,8.09999979 4,6.28319654 4,4.04999989 C4,1.81680325 5.82311159,0 8.06406239,0 C10.3050132,0 12.1281248,1.81680325 12.1281248,4.04999989 C12.1281248,6.28319654 10.3050132,8.09999979 8.06406239,8.09999979" id="Path" stroke-width="1.5"></path>
                    </g>
                </g>
            </g>
        </g>
    </g>
</svg>