<?xml version="1.0" encoding="UTF-8"?>
<svg width="36px" height="45px" viewBox="0 0 36 45" version="1.1" xmlns="http://www.w3.org/2000/svg" xmlns:xlink="http://www.w3.org/1999/xlink">
    <!-- Generator: Sketch 52.6 (67491) - http://www.bohemiancoding.com/sketch -->
    <title>icon/bag</title>
    <desc>Created with Sketch.</desc>
    <g id="Symbols" stroke="none" stroke-width="1" fill="none" fill-rule="evenodd">
        <g id="icon/bag" transform="translate(0.000000, 1.000000)">
            <g>
                <g id="Group-13" transform="translate(0.400000, 0.213300)">
                    <g id="Group-2" transform="translate(0.000060, -0.000150)">
                        <path d="M7.22937005,8.13693032 C7.26027005,8.06763032 7.27797005,7.99323032 7.28067005,7.91763031 C7.28277005,7.86213031 7.49937006,2.36343009 8.71767011,0.0873300035 C9.32907013,0.0432300017 11.5667702,2.37003009 13.5062703,5.0667302 C13.6661703,5.28813021 13.9598703,5.37393021 14.2130703,5.26473021 C14.2940703,5.22903021 16.3805704,4.44093018 19.4708705,5.50893022 C19.7240705,5.59713022 20.0042706,5.50233022 20.1524706,5.27883021 C21.3152706,3.52743014 23.5838707,0.647730026 24.7196707,0.376230015 C24.7958707,0.358230014 24.8561707,0.357330014 24.8855708,0.372630015 C25.7735708,0.848430034 26.1623708,5.22393021 26.0135708,9.00453036 C26.0099708,9.10683036 26.0327708,9.20883037 26.0801708,9.30003037 C26.2277708,9.58173038 29.6198709,16.2522306 23.3867707,20.8932308 C23.3684707,20.9064308 21.5465706,22.2288309 18.9044705,22.8603309 C15.8339704,23.5944309 12.9944703,23.1126309 10.4648702,21.4293309 C4.86386995,17.7009307 5.79536999,11.3196304 7.22937005,8.13693032 Z" id="Stroke-1" stroke="#DDAD26" stroke-width="1.20000005" stroke-linecap="round" stroke-linejoin="round"></path>
                        <path d="M9.30579013,6.81798027 C9.36549013,6.80388027 9.42429014,6.77958027 9.47949014,6.74508027 C10.0581902,6.38568025 11.1453902,5.77398023 11.5983902,5.66568023 C11.9136902,5.59038022 12.1086902,5.27358021 12.0330902,4.9576802 C11.9574902,4.64178018 11.6406902,4.44708018 11.3247902,4.52268018 C10.5405902,4.71018019 9.02859012,5.64168022 8.85879011,5.74788023 C8.5830901,5.91858024 8.4984901,6.28098025 8.67009011,6.55698026 C8.80719011,6.77718027 9.06639012,6.87528027 9.30579013,6.81798027" id="Fill-3" fill="#DDAD26"></path>
                        <path d="M21.8621406,6.35874025 C21.8747406,6.35934025 23.1641407,6.46044026 24.0326407,7.4951403 C24.1808407,7.6712403 24.4100407,7.73874031 24.6197407,7.68864031 C24.7055407,7.6679403 24.7883407,7.6274403 24.8606407,7.5671403 C25.1093408,7.35864029 25.1417408,6.98784028 24.9329408,6.73944027 C23.7275407,5.30334021 22.0016406,5.18964021 21.9284406,5.18514021 C21.6053406,5.16804021 21.3269406,5.41404022 21.3086406,5.73894023 C21.2900406,6.06234024 21.5378406,6.34014025 21.8621406,6.35874025" id="Fill-5" fill="#DDAD26"></path>
                        <path d="M14.9409004,19.7739308 C15.0159004,20.7372308 16.3857004,21.1347308 16.3857004,21.1347308 C16.3857004,21.1347308 17.5230005,20.7045308 17.7354005,19.8363308 C17.9478005,18.9684308 14.8659004,18.8109307 14.9409004,19.7739308" id="Fill-7" fill="#DDAD26"></path>
                        <path d="M10.0795202,16.1670306 C10.0945202,16.1670306 11.5990202,16.1760306 12.3280203,17.5365307 C12.4567203,17.7774307 12.7291203,17.8917307 12.9823203,17.8308307 C13.0303203,17.8194307 13.0777203,17.8017307 13.1236203,17.7771307 C13.3639203,17.6487307 13.4785203,17.3766307 13.4179203,17.1237307 C13.4065203,17.0751307 13.3888203,17.0277307 13.3642203,16.9821307 C12.3046203,15.0045306 10.1647202,14.9916306 10.0741202,14.9919306 C9.75132015,14.9952306 9.48762014,15.2571306 9.48912014,15.5817306 C9.48942014,15.6285306 9.49512014,15.6732306 9.50532014,15.7167306 C9.56712014,15.9762306 9.80142015,16.1682306 10.0795202,16.1670306" id="Fill-9" fill="#DDAD26"></path>
                        <path d="M19.7705105,17.9258707 C20.0189106,18.0044707 20.2985106,17.9099707 20.4446106,17.6789707 C21.2687106,16.3742707 22.7699107,16.4726707 22.7849107,16.4735707 C23.0624107,16.4945707 23.3096107,16.3199706 23.3897107,16.0652706 C23.4032107,16.0226706 23.4119107,15.9785706 23.4155107,15.9320706 C23.4401107,15.6083706 23.1959107,15.3281706 22.8743107,15.3017706 C22.7840107,15.2948706 20.6486106,15.1550706 19.4504105,17.0519707 C19.4228105,17.0954707 19.4015105,17.1419707 19.3868105,17.1893707 C19.3082105,17.4374707 19.4027105,17.7170707 19.6334105,17.8622707 C19.6775105,17.8898707 19.7234105,17.9111707 19.7705105,17.9258707" id="Fill-11" fill="#DDAD26"></path>
                        <polygon id="Fill-14" fill="#027747" points="30.000001 12.1002005 25.8000008 9.30030037 23.7000007 10.7001004 21.6000006 9.30030037 19.5000005 10.7001004 17.4000005 9.30030037 15.3000004 10.7001004 13.2000003 9.30030037 11.1000002 10.7001004 9.00000012 9.30030037 6.90000004 10.7001004 4.79999995 9.30030037 2.69999987 10.7001004 0.599999785 9.30030037 0.599999785 42.9003017 13.2000003 42.9003017 25.8000008 42.9003017 34.2000011 42.9003017 34.2000011 9.30030037"></polygon>
                        <polygon id="Stroke-15" stroke="#DDAD26" stroke-width="1.20000005" stroke-linecap="round" stroke-linejoin="round" points="30.000001 12.1002005 25.8000008 9.30030037 25.8000008 42.9003017 30.000001 38.7003015"></polygon>
                        <polygon id="Stroke-17" stroke="#DDAD26" stroke-width="1.20000005" stroke-linecap="round" stroke-linejoin="round" points="30.000001 12.1002005 30.000001 38.7003015 34.2000011 42.9003017 34.2000011 9.30030037"></polygon>
                        <polygon id="Stroke-19" stroke="#DDAD26" stroke-width="1.20000005" stroke-linecap="round" stroke-linejoin="round" points="25.8000008 42.9001517 34.2000011 42.9001517 30.000001 38.7001515"></polygon>
                        <polygon id="Stroke-21" stroke="#DDAD26" stroke-width="1.20000005" stroke-linecap="round" stroke-linejoin="round" points="23.7000007 10.7001004 21.6000006 9.30000037 19.5000005 10.7001004 17.4000005 9.30000037 15.3000004 10.7001004 13.2000003 9.30000037 11.1000002 10.7001004 9.00000012 9.30000037 6.90000004 10.7001004 4.79999995 9.30000037 2.69999987 10.7001004 0.599999785 9.30000037 0.599999785 42.9000017 13.2000003 42.9000017 25.8000008 42.9000017 25.8000008 9.30000037"></polygon>
                    </g>
                </g>
                <g id="Group-23" transform="translate(1.000000, 13.513300)"></g>
            </g>
        </g>
    </g>
</svg>