<svg width="16" height="16" viewBox="0 0 16 16" fill="none" xmlns="http://www.w3.org/2000/svg">
<path d="M7.43042 2.55957H8.30933C8.38745 2.55957 8.42651 2.59863 8.42651 2.67676V12.9893C8.42651 13.0674 8.38745 13.1064 8.30933 13.1064H7.43042C7.35229 13.1064 7.31323 13.0674 7.31323 12.9893V2.67676C7.31323 2.59863 7.35229 2.55957 7.43042 2.55957Z" fill="#1C1C1C"/>
<path d="M2.948 7.27637H12.7917C12.8699 7.27637 12.9089 7.31543 12.9089 7.39355V8.27246C12.9089 8.35059 12.8699 8.38965 12.7917 8.38965H2.948C2.86987 8.38965 2.83081 8.35059 2.83081 8.27246V7.39355C2.83081 7.31543 2.86987 7.27637 2.948 7.27637Z" fill="#1C1C1C"/>
</svg>
