<svg width="23" height="23" viewBox="0 0 23 23" fill="none" xmlns="http://www.w3.org/2000/svg">
<path d="M17.3394 21.7223H5.66053C5.41468 21.7165 5.17239 21.6623 4.94749 21.5628C4.72259 21.4634 4.51949 21.3205 4.34981 21.1426C4.18012 20.9646 4.04717 20.7549 3.95854 20.5255C3.86992 20.2961 3.82737 20.0515 3.83331 19.8056V7.1748H5.11109V19.8056C5.10499 19.8837 5.11438 19.9622 5.13873 20.0366C5.16308 20.1111 5.2019 20.18 5.25296 20.2393C5.30402 20.2987 5.36632 20.3474 5.43626 20.3826C5.50621 20.4178 5.58243 20.4389 5.66053 20.4445H17.3394C17.4175 20.4389 17.4937 20.4178 17.5637 20.3826C17.6336 20.3474 17.6959 20.2987 17.747 20.2393C17.7981 20.18 17.8369 20.1111 17.8612 20.0366C17.8856 19.9622 17.895 19.8837 17.8889 19.8056V7.1748H19.1666V19.8056C19.1726 20.0515 19.13 20.2961 19.0414 20.5255C18.9528 20.7549 18.8198 20.9646 18.6501 21.1426C18.4805 21.3205 18.2774 21.4634 18.0525 21.5628C17.8276 21.6623 17.5853 21.7165 17.3394 21.7223Z" fill="black"/>
<path d="M19.6651 5.74995H3.19455C3.02511 5.74995 2.86261 5.68263 2.74279 5.56282C2.62298 5.443 2.55566 5.2805 2.55566 5.11106C2.55566 4.94161 2.62298 4.77911 2.74279 4.65929C2.86261 4.53948 3.02511 4.47217 3.19455 4.47217H19.6651C19.8346 4.47217 19.9971 4.53948 20.1169 4.65929C20.2367 4.77911 20.304 4.94161 20.304 5.11106C20.304 5.2805 20.2367 5.443 20.1169 5.56282C19.9971 5.68263 19.8346 5.74995 19.6651 5.74995Z" fill="black"/>
<path d="M13.4167 8.30566H14.6945V17.889H13.4167V8.30566Z" fill="black"/>
<path d="M8.30566 8.30566H9.58344V17.889H8.30566V8.30566Z" fill="black"/>
<path d="M14.6946 3.74394H13.4807V2.55561H9.51955V3.74394H8.30567V2.55561C8.30525 2.22751 8.43107 1.91182 8.65705 1.67394C8.88303 1.43607 9.19186 1.29424 9.51955 1.27783H13.4807C13.8084 1.29424 14.1172 1.43607 14.3432 1.67394C14.5691 1.91182 14.695 2.22751 14.6946 2.55561V3.74394Z" fill="black"/>
</svg>
