<svg width="35" height="54" viewBox="0 0 35 54" fill="none" xmlns="http://www.w3.org/2000/svg">
<rect width="35" height="54" rx="3" fill="#037847"/>
<path d="M17.4873 28H17.4877C17.7311 28 17.9287 27.8086 17.929 27.5725L17.9309 24.8858C21.8645 24.6577 24.9987 21.3837 25 17.3812C25.0018 11.777 18.1005 5.38616 17.8069 5.11712C17.6348 4.95919 17.3646 4.96127 17.1953 5.1216C16.9016 5.39985 10.0015 11.9998 10 17.3849C9.99938 19.3921 10.7769 21.2793 12.1896 22.6995C13.4996 24.0164 15.2118 24.7775 17.0485 24.8856L17.0466 27.5711C17.0463 27.8076 17.2436 27.9996 17.4874 27.9996L17.4873 28ZM12.9806 11.6308L17.0552 15.3846L17.0512 20.632L11.2299 15.269C11.603 14.0467 12.2428 12.8015 12.9807 11.6308L12.9806 11.6308ZM23.7858 15.2514L17.934 20.6431L17.938 15.3921L22.0616 11.5926C22.7929 12.7591 23.4226 14.008 23.7858 15.2514H23.7858ZM17.0563 14.2053L13.4628 10.8949C14.7463 9.0098 16.2022 7.3913 17.0622 6.49179L17.0563 14.2053ZM17.9316 24.0289L17.9331 21.8237L24.0115 16.2236C24.0786 16.6133 24.1177 17.0002 24.1174 17.3809C24.1164 20.9101 21.3786 23.8007 17.9316 24.0288L17.9316 24.0289ZM21.5805 10.8553L17.939 14.2105L17.9448 6.46878C18.811 7.35133 20.2874 8.95607 21.5805 10.8552L21.5805 10.8553ZM12.8248 22.1051C11.5718 20.8452 10.882 19.1691 10.8826 17.3849C10.8826 17.0084 10.9239 16.623 10.9953 16.2325L17.0509 21.8113L17.0493 24.0294C15.454 23.9225 13.9671 23.2534 12.8249 22.1051H12.8248Z" fill="white"/>
<path d="M7.552 42.402H11.259V43.788H7.552V42.402ZM7.684 45.57H11.875V47H5.913V39.3H11.732V40.73H7.684V45.57ZM16.9779 47.132C16.3839 47.132 15.8302 47.0367 15.3169 46.846C14.8109 46.648 14.3709 46.3693 13.9969 46.01C13.6229 45.6507 13.3295 45.229 13.1169 44.745C12.9115 44.261 12.8089 43.7293 12.8089 43.15C12.8089 42.5707 12.9115 42.039 13.1169 41.555C13.3295 41.071 13.6229 40.6493 13.9969 40.29C14.3782 39.9307 14.8219 39.6557 15.3279 39.465C15.8339 39.267 16.3875 39.168 16.9889 39.168C17.6562 39.168 18.2575 39.2853 18.7929 39.52C19.3355 39.7473 19.7902 40.0847 20.1569 40.532L19.0129 41.588C18.7489 41.2873 18.4555 41.0637 18.1329 40.917C17.8102 40.763 17.4582 40.686 17.0769 40.686C16.7175 40.686 16.3875 40.7447 16.0869 40.862C15.7862 40.9793 15.5259 41.148 15.3059 41.368C15.0859 41.588 14.9135 41.8483 14.7889 42.149C14.6715 42.4497 14.6129 42.7833 14.6129 43.15C14.6129 43.5167 14.6715 43.8503 14.7889 44.151C14.9135 44.4517 15.0859 44.712 15.3059 44.932C15.5259 45.152 15.7862 45.3207 16.0869 45.438C16.3875 45.5553 16.7175 45.614 17.0769 45.614C17.4582 45.614 17.8102 45.5407 18.1329 45.394C18.4555 45.24 18.7489 45.009 19.0129 44.701L20.1569 45.757C19.7902 46.2043 19.3355 46.5453 18.7929 46.78C18.2575 47.0147 17.6525 47.132 16.9779 47.132ZM24.9391 47.132C24.3305 47.132 23.7658 47.033 23.2451 46.835C22.7318 46.637 22.2845 46.3583 21.9031 45.999C21.5291 45.6397 21.2358 45.218 21.0231 44.734C20.8178 44.25 20.7151 43.722 20.7151 43.15C20.7151 42.578 20.8178 42.05 21.0231 41.566C21.2358 41.082 21.5328 40.6603 21.9141 40.301C22.2955 39.9417 22.7428 39.663 23.2561 39.465C23.7695 39.267 24.3268 39.168 24.9281 39.168C25.5368 39.168 26.0941 39.267 26.6001 39.465C27.1135 39.663 27.5571 39.9417 27.9311 40.301C28.3125 40.6603 28.6095 41.082 28.8221 41.566C29.0348 42.0427 29.1411 42.5707 29.1411 43.15C29.1411 43.722 29.0348 44.2537 28.8221 44.745C28.6095 45.229 28.3125 45.6507 27.9311 46.01C27.5571 46.362 27.1135 46.637 26.6001 46.835C26.0941 47.033 25.5405 47.132 24.9391 47.132ZM24.9281 45.614C25.2728 45.614 25.5881 45.5553 25.8741 45.438C26.1675 45.3207 26.4241 45.152 26.6441 44.932C26.8641 44.712 27.0328 44.4517 27.1501 44.151C27.2748 43.8503 27.3371 43.5167 27.3371 43.15C27.3371 42.7833 27.2748 42.4497 27.1501 42.149C27.0328 41.8483 26.8641 41.588 26.6441 41.368C26.4315 41.148 26.1785 40.9793 25.8851 40.862C25.5918 40.7447 25.2728 40.686 24.9281 40.686C24.5835 40.686 24.2645 40.7447 23.9711 40.862C23.6851 40.9793 23.4321 41.148 23.2121 41.368C22.9921 41.588 22.8198 41.8483 22.6951 42.149C22.5778 42.4497 22.5191 42.7833 22.5191 43.15C22.5191 43.5093 22.5778 43.843 22.6951 44.151C22.8198 44.4517 22.9885 44.712 23.2011 44.932C23.4211 45.152 23.6778 45.3207 23.9711 45.438C24.2645 45.5553 24.5835 45.614 24.9281 45.614Z" fill="white"/>
</svg>
