<svg width="13" height="13" viewBox="0 0 13 13" fill="none" xmlns="http://www.w3.org/2000/svg">
<path d="M0.94666 12.7192C0.854167 12.719 0.762719 12.6996 0.678131 12.6622C0.593543 12.6248 0.517667 12.5702 0.455326 12.5019C0.391859 12.4341 0.343429 12.3537 0.313212 12.2659C0.282996 12.1782 0.271675 12.085 0.279993 11.9925L0.443326 10.1965L7.98866 2.65386L10.3467 5.01119L2.80333 12.5532L1.00733 12.7165C0.987159 12.7184 0.966913 12.7193 0.94666 12.7192ZM10.8173 4.53986L8.45999 2.18252L9.87399 0.768523C9.93591 0.706538 10.0094 0.657366 10.0904 0.623816C10.1713 0.590266 10.258 0.572998 10.3457 0.572998C10.4333 0.572998 10.52 0.590266 10.601 0.623816C10.6819 0.657366 10.7554 0.706538 10.8173 0.768523L12.2313 2.18252C12.2933 2.24444 12.3425 2.31796 12.376 2.3989C12.4096 2.47983 12.4269 2.56658 12.4269 2.65419C12.4269 2.7418 12.4096 2.82855 12.376 2.90948C12.3425 2.99041 12.2933 3.06394 12.2313 3.12586L10.818 4.53919L10.8173 4.53986Z" fill="white"/>
</svg>
