<?xml version="1.0" encoding="UTF-8"?>
<svg width="32px" height="31px" viewBox="0 0 32 31" version="1.1" xmlns="http://www.w3.org/2000/svg" xmlns:xlink="http://www.w3.org/1999/xlink">
    <!-- Generator: Sketch 52.6 (67491) - http://www.bohemiancoding.com/sketch -->
    <title>icon instagram</title>
    <desc>Created with Sketch.</desc>
    <g id="Symbols" stroke="none" stroke-width="1" fill="none" fill-rule="evenodd">
        <g id="component/footer" transform="translate(-704.000000, -32.000000)" fill="#FFFFFF">
            <path d="M719.648857,34.7737155 C723.760854,34.7737155 724.24788,34.7893649 725.871748,34.8634549 C727.373233,34.9319821 728.188651,35.1828612 728.731367,35.3937 C729.450138,35.6730659 729.963206,36.0068379 730.50207,36.5457023 C731.040934,37.0845667 731.374706,37.5976342 731.654011,38.3164054 C731.864911,38.859121 732.11579,39.6745394 732.184317,41.175963 C732.258407,42.799892 732.274057,43.2869179 732.274057,47.3989151 C732.274057,51.5109124 732.258407,51.9979382 732.184317,53.6218061 C732.11579,55.1232909 731.864911,55.9387092 731.654011,56.4814249 C731.374706,57.2001961 731.040934,57.7132635 730.50207,58.2521279 C729.963206,58.7909924 729.450138,59.1247644 728.731367,59.4040691 C728.188651,59.614969 727.373233,59.8658481 725.871748,59.9343753 C724.248125,60.0084654 723.761099,60.0241147 719.648857,60.0241147 C715.536615,60.0241147 715.04959,60.0084654 713.425966,59.9343753 C711.924481,59.8658481 711.109063,59.614969 710.566409,59.4040691 C709.847576,59.1247644 709.334509,58.7909924 708.795644,58.2521279 C708.25678,57.7132635 707.923008,57.2001961 707.643703,56.4814249 C707.432803,55.9387092 707.181924,55.1232909 707.113397,53.6218672 C707.039307,51.9979382 707.023658,51.5109124 707.023658,47.3989151 C707.023658,43.2869179 707.039307,42.799892 707.113397,41.1760242 C707.181924,39.6745394 707.432803,38.859121 707.643703,38.3164054 C707.923008,37.5976342 708.25678,37.0845667 708.795644,36.5457023 C709.334509,36.0068379 709.847576,35.6730659 710.566409,35.3937 C711.109063,35.1828612 711.924481,34.9319821 713.425905,34.8634549 C715.049834,34.7893649 715.53686,34.7737155 719.648857,34.7737155 M719.648857,31.9988846 C723.831277,31.9988846 724.355714,32.0166124 725.998227,32.0915582 C727.637438,32.1663818 728.756858,32.4266751 729.736473,32.8073952 C730.749159,33.2009527 731.60798,33.7275299 732.464111,34.5836611 C733.320242,35.4397923 733.84682,36.2986132 734.240377,37.3112994 C734.621097,38.290914 734.88139,39.4103338 734.956214,41.0495454 C735.03116,42.692058 735.048888,43.2164957 735.048888,47.3989151 C735.048888,51.5813346 735.03116,52.1057722 734.956214,53.7482849 C734.88139,55.3874964 734.621097,56.5069163 734.240377,57.4865309 C733.84682,58.499217 733.320242,59.3580379 732.464111,60.2141691 C731.60798,61.0703003 730.749159,61.5968776 729.736473,61.9904351 C728.756858,62.3711552 727.637438,62.6314484 725.998227,62.706272 C724.355714,62.7812179 723.831277,62.7988846 719.648857,62.7988846 C715.466438,62.7988846 714.942061,62.7812179 713.299487,62.706272 C711.660276,62.6314484 710.540856,62.3711552 709.561241,61.9904351 C708.548555,61.5968776 707.689734,61.0703003 706.833603,60.2141691 C705.977472,59.3580379 705.450895,58.4991559 705.057337,57.4865309 C704.676617,56.5069163 704.416324,55.3874964 704.3415,53.7482849 C704.266554,52.1057722 704.248888,51.5813346 704.248888,47.3989151 C704.248888,43.2164957 704.266554,42.692058 704.3415,41.0495454 C704.416324,39.4103338 704.676617,38.290914 705.057337,37.3112994 C705.450895,36.2986132 705.977472,35.4397923 706.833603,34.5836611 C707.689734,33.7275299 708.548555,33.2009527 709.561241,32.8073952 C710.540856,32.4266751 711.660276,32.1663818 713.299487,32.0915582 C714.942061,32.0166124 715.466438,31.9988846 719.648857,31.9988846 Z M719.679443,39.5155512 C715.308743,39.5155512 711.765554,43.0587393 711.765554,47.4294401 C711.765554,51.8001409 715.308743,55.343329 719.679443,55.343329 C724.050144,55.343329 727.593332,51.8001409 727.593332,47.4294401 C727.593332,43.0587393 724.050144,39.5155512 719.679443,39.5155512 Z M719.679443,52.5665398 C716.842336,52.5665398 714.542344,50.2665477 714.542344,47.4294401 C714.542344,44.5923325 716.842336,42.2923404 719.679443,42.2923404 C722.516551,42.2923404 724.816543,44.5923325 724.816543,47.4294401 C724.816543,50.2665477 722.516551,52.5665398 719.679443,52.5665398 Z M729.67111,39.1488542 C729.67111,38.1363227 728.850338,37.3155512 727.837807,37.3155512 C726.825275,37.3155512 726.004443,38.1363227 726.004443,39.1488542 C726.004443,40.1613857 726.825275,40.9822179 727.837807,40.9822179 C728.850338,40.9822179 729.67111,40.1613857 729.67111,39.1488542 Z" id="icon-instagram"></path>
        </g>
    </g>
</svg>