<?xml version="1.0" encoding="UTF-8"?>
<svg width="522px" height="130px" viewBox="0 0 522 130" version="1.1" xmlns="http://www.w3.org/2000/svg" xmlns:xlink="http://www.w3.org/1999/xlink">
    <defs>
        <polygon id="path-1" points="0.253232003 0.202419002 43.5766105 0.202419002 43.5766105 22.6077276 0.253232003 22.6077276"></polygon>
        <polygon id="path-3" points="0.482380919 0.00329001967 53.8849569 0.00329001967 53.8849569 39.7600005 0.482380919 39.7600005"></polygon>
        <polygon id="path-5" points="0 0.202419002 43.3233785 0.202419002 43.3233785 22.6077276 0 22.6077276"></polygon>
        <polygon id="path-7" points="0.19231213 0.00329001967 53.5941107 0.00329001967 53.5941107 39.7600005 0.19231213 39.7600005"></polygon>
    </defs>
    <g id="landing-page" stroke="none" stroke-width="1" fill="none" fill-rule="evenodd">
        <g id="1-landing-page-C2" transform="translate(-459.000000, -958.000000)">
            <g id="keep-the-cat" transform="translate(-350.000000, 572.000000)">
                <g id="superiorOdorControl" transform="translate(809.000000, 386.000000)">
                    <path d="M103.015088,88.60038 L108.725898,87.44965 L107.744148,82.5754099 L101.785818,83.7749299 C100.162658,84.1033699 98.5644881,83.0406999 98.2360481,81.4163499 L97.3590181,77.0597598 C97.0317681,75.4354098 98.0932481,73.8372398 99.7175981,73.5099898 L105.921068,72.2604898 C107.546608,71.9332398 109.142398,72.9947198 109.470838,74.6190698 L110.006338,77.2775299 L106.806428,77.9225099 L106.313768,75.4853898 L100.604148,76.6361198 L101.393118,80.5500299 L107.351448,79.3505099 C108.975798,79.0220699 110.572778,80.0835499 110.894078,81.6840999 L111.975788,87.051 C112.304228,88.67535 111.241558,90.27352 109.617208,90.60077 L103.412548,91.85027 C101.789388,92.17752 100.186458,91.09105 99.8651581,89.49169 L99.2725381,86.56072 L102.473638,85.9157399 L103.015088,88.60038 Z" id="Fill-1" fill="#007647"></path>
                    <path d="M99.7210491,86.860719 L100.235129,89.415649 C100.517159,90.815089 101.938019,91.758759 103.336269,91.476729 L109.538549,90.227229 C110.960599,89.940439 111.885229,88.549329 111.598439,87.127279 L110.517919,81.7627589 C110.381069,81.0868389 109.983609,80.5025489 109.396939,80.1146089 C108.809079,79.7266689 108.110549,79.5898189 107.421539,79.7266689 L101.466779,80.9273789 C101.264479,80.9654589 101.060989,80.8357489 101.019339,80.6298789 L100.230369,76.7159688 C100.210139,76.6171988 100.230369,76.5136688 100.286299,76.4291788 C100.342229,76.3458788 100.429099,76.2863788 100.527869,76.2673388 L106.237489,75.1177988 C106.440979,75.0832888 106.643279,75.2094288 106.684929,75.4152988 L107.100239,77.4787589 L109.555209,76.9837188 L109.094679,74.6989188 C108.956639,74.0134788 108.556799,73.4196688 107.968939,73.0293488 C107.381079,72.6390288 106.681359,72.5021788 105.993539,72.6390288 L99.7924491,73.8885288 C98.3703991,74.1753188 97.4445791,75.5664288 97.7313691,76.9884788 L98.6095891,81.3450689 C98.8975691,82.7683089 100.285109,83.6941289 101.709539,83.4049589 L107.665489,82.2054389 C107.871359,82.1697389 108.072469,82.2970689 108.112929,82.5029389 L109.094679,87.374799 C109.136329,87.580669 109.003049,87.780589 108.797179,87.823429 L103.087559,88.972969 C102.988789,88.993199 102.886449,88.971779 102.801959,88.917039 C102.718659,88.861109 102.660349,88.774239 102.640119,88.675469 L102.174829,86.365679 L99.7210491,86.860719 Z M102.842419,92.287119 C101.266859,92.287119 99.8102991,91.153049 99.4901891,89.566779 L98.9011391,86.638189 C98.8594891,86.432319 98.9927691,86.232399 99.1986391,86.1907489 L102.397359,85.5457689 C102.496129,85.5267289 102.598469,85.5469589 102.682959,85.6016989 C102.767449,85.6576289 102.824569,85.7444989 102.844799,85.8432689 L103.310089,88.153059 L108.273579,87.152269 L107.442959,83.0253489 L101.859479,84.1510889 C100.028069,84.5176089 98.2335491,83.3287989 97.8646491,81.4961989 L96.9864291,77.1396089 C96.6175291,75.3058188 97.8087191,73.5124888 99.6425091,73.1423988 L105.843599,71.8928988 C106.728959,71.7132088 107.633359,71.8928988 108.390199,72.3962688 C109.145849,72.8996388 109.662309,73.6636188 109.839619,74.5477888 L110.375119,77.2062489 C110.395349,77.3050189 110.375119,77.4085489 110.319189,77.4918489 C110.263259,77.5751489 110.176389,77.6346489 110.077619,77.6548789 L106.877709,78.2998589 C106.777749,78.3177089 106.676599,78.2986689 106.592109,78.2427389 C106.508809,78.1868089 106.450499,78.1011289 106.430269,78.0023589 L106.014959,75.9377088 L101.051469,76.9373088 L101.689309,80.1062789 L107.271599,78.9805389 C108.155769,78.8032289 109.060169,78.9817289 109.815819,79.4803389 C110.572659,79.9801389 111.086739,80.7369789 111.262859,81.6116289 L112.343379,86.976149 C112.713469,88.809939 111.522279,90.603269 109.688489,90.973359 L103.486209,92.222859 C103.270819,92.265699 103.055429,92.287119 102.842419,92.287119 Z" id="Fill-3" fill="#007647"></path>
                    <path d="M129.25554,82.5492299 C129.68037,84.1509699 128.71647,85.8086399 127.11473,86.23347 L120.99694,87.85306 C119.3952,88.2767 117.7292,87.28781 117.31151,85.7110599 L113.29526,70.5385598 L116.45114,69.7031798 L120.40432,84.6329199 L126.0354,83.1418499 L122.08341,68.2121098 L125.23929,67.3767297 L129.25554,82.5492299 Z" id="Fill-5" fill="#007647"></path>
                    <path d="M113.76055,70.8154728 L117.67922,85.6155029 C117.85653,86.283093 118.28969,86.848343 118.90135,87.204153 C119.51658,87.563533 120.22463,87.662303 120.89936,87.486183 L127.01358,85.8654029 C127.69069,85.6869029 128.25832,85.2525529 128.61175,84.6420829 C128.96637,84.0316129 129.06276,83.3247529 128.88426,82.6476429 L124.96559,67.8476127 L122.54632,68.4878328 L126.40073,83.0451029 C126.45428,83.2485929 126.3329,83.4568429 126.1306,83.5103929 L120.49952,85.0014629 C120.40194,85.0300229 120.29841,85.0133629 120.21035,84.9633829 C120.12348,84.9122129 120.06041,84.8289129 120.03423,84.7313329 L116.18101,70.1740628 L113.76055,70.8154728 Z M120.23534,88.333463 C119.64034,88.333463 119.0501,88.172813 118.51817,87.861033 C117.73158,87.401693 117.17228,86.673413 116.9438,85.8106629 L112.92755,70.6417328 C112.90256,70.5441528 112.91684,70.4418128 112.96682,70.3537528 C113.01799,70.2668828 113.10129,70.2026228 113.19887,70.1776328 L116.35475,69.3422528 C116.45233,69.3136928 116.55586,69.3291628 116.64273,69.3803328 C116.7296,69.4315028 116.79267,69.5136128 116.81885,69.6111928 L120.67207,84.1696529 L125.56773,82.8725529 L121.71332,68.3152828 C121.65977,68.1129828 121.78115,67.9047327 121.98345,67.8511827 L125.13814,67.0158027 C125.23691,66.9872427 125.33925,67.0039027 125.42731,67.0538827 C125.51418,67.1050527 125.57725,67.1871627 125.60343,67.2847427 L129.61968,82.4524829 C129.85054,83.3259429 129.72678,84.2386729 129.26982,85.0240729 C128.81286,85.8106629 128.08101,86.369963 127.20874,86.600823 L121.09333,88.220413 C120.81011,88.295383 120.52213,88.333463 120.23534,88.333463 Z" id="Fill-7" fill="#007647"></path>
                    <path d="M140.444873,71.6172948 L139.134683,66.8739547 L134.075992,68.2698248 L135.387372,73.0143548 L140.444873,71.6172948 Z M130.066882,66.0159647 L138.489703,63.6895147 C140.087873,63.2480247 141.757443,64.1940747 142.197743,65.7922447 L143.636453,70.9973048 C144.076753,72.5930948 143.130703,74.2626648 141.532533,74.7041548 L136.254883,76.1607148 L138.194583,83.1805249 L135.048222,84.0492249 L130.066882,66.0159647 Z" id="Fill-9" fill="#007647"></path>
                    <path d="M134.544257,68.5400738 L135.650957,72.5491838 L139.975418,71.3544238 L138.868718,67.3453137 L134.544257,68.5400738 Z M135.386777,73.3976538 C135.321327,73.3976538 135.257067,73.3809938 135.198757,73.3488638 C135.110697,73.2988838 135.046437,73.2167738 135.019067,73.1191938 L133.710067,68.3758538 C133.654137,68.1735538 133.773137,67.9653037 133.975437,67.9093737 L139.032938,66.5123137 C139.237618,66.4551937 139.444678,66.5753837 139.500608,66.7776837 L140.810798,71.5186438 C140.865538,71.7209438 140.747728,71.9303838 140.544238,71.9863138 L135.486737,73.3833738 C135.454607,73.3928938 135.420097,73.3976538 135.386777,73.3976538 Z M130.536337,66.2874037 L135.312997,83.5828639 L137.726318,82.9164639 L135.887767,76.2643638 C135.861587,76.1667838 135.874677,76.0632538 135.924657,75.9763838 C135.973447,75.8883238 136.056747,75.8240638 136.154328,75.7978838 L141.429598,74.3401338 C142.104328,74.1544938 142.667198,73.7141938 143.014678,73.0989638 C143.363348,72.4849238 143.451408,71.7768738 143.265768,71.1009538 L141.828248,65.8982737 C141.641418,65.2247337 141.201118,64.6606737 140.588268,64.3131937 C139.973038,63.9657137 139.264988,63.8752737 138.590258,64.0621037 L130.536337,66.2874037 Z M135.047627,84.4301439 C134.881027,84.4301439 134.727517,84.3194739 134.681107,84.1504939 L129.702147,66.1243737 C129.646217,65.9220737 129.764027,65.7126337 129.967517,65.6567037 L138.387958,63.3302537 C139.255468,63.0886837 140.171768,63.2041137 140.963118,63.6527437 C141.753278,64.1001837 142.320908,64.8260837 142.561288,65.6959737 L143.998808,70.8986538 C144.239188,71.7697338 144.124948,72.6836538 143.676318,73.4738138 C143.227688,74.2651638 142.501788,74.8327938 141.631898,75.0719838 L136.723148,76.4285838 L138.560508,83.0806839 C138.586688,83.1782639 138.574788,83.2817939 138.524808,83.3686639 C138.474828,83.4567239 138.391528,83.5209839 138.295138,83.5471639 L135.148777,84.4158639 C135.114267,84.4253839 135.080947,84.4301439 135.047627,84.4301439 Z" id="Fill-11" fill="#007647"></path>
                    <polygon id="Fill-13" fill="#007647" points="151.166535 79.6102869 146.479125 61.4972967 158.124465 58.4842166 158.936045 61.6210567 150.450155 63.8166067 151.571135 68.1434468 157.065365 66.7213967 157.884085 69.8820368 152.388665 71.3040868 153.509645 75.6309268 161.994345 73.4365668 162.810685 76.5960168"></polygon>
                    <path d="M146.942273,61.7753997 L151.438093,79.1458299 L162.344443,76.3243398 L161.717313,73.9003098 L153.602703,76.0006598 C153.505123,76.0268398 153.401593,76.0125598 153.314723,75.9601998 C153.227853,75.9090298 153.164783,75.8257298 153.139793,75.7281498 L152.020003,71.4013098 C151.995013,71.3037298 152.009293,71.2001998 152.060463,71.1133298 C152.111633,71.0252698 152.194933,70.9633898 152.292513,70.9372098 L157.417843,69.6115498 L156.789523,67.1898997 L151.665383,68.5143698 C151.460703,68.5655398 151.254833,68.4441598 151.202473,68.2418598 L150.082683,63.9162097 C150.056503,63.8186297 150.070783,63.7150997 150.121953,63.6282297 C150.173123,63.5401697 150.257613,63.4782897 150.355193,63.4521097 L158.469803,61.3529497 L157.848623,58.9539096 L146.942273,61.7753997 Z M151.165583,79.9895399 C150.995413,79.9895399 150.841903,79.8752999 150.797873,79.7039399 L146.111653,61.5980897 C146.085473,61.5005097 146.099753,61.3969797 146.150923,61.3089197 C146.202093,61.2220497 146.286583,61.1589797 146.384163,61.1339897 L158.025933,58.1220996 C158.228233,58.0673596 158.436483,58.1923096 158.488843,58.3946096 L159.300423,61.5302597 C159.326603,61.6278397 159.312323,61.7313697 159.261153,61.8182397 C159.209983,61.9051097 159.125493,61.9681797 159.027913,61.9943597 L150.913303,64.0935197 L151.842693,67.6825597 L156.968023,66.3580897 C157.171513,66.3021597 157.378573,66.4282997 157.430933,66.6305997 L158.248463,69.7888598 C158.273453,69.8864398 158.259173,69.9899698 158.208003,70.0780298 C158.156833,70.1648998 158.073533,70.2279698 157.975953,70.2529598 L152.850623,71.5786198 L153.781203,75.1688498 L161.894623,73.0684998 C161.992203,73.0446998 162.095733,73.0577898 162.182603,73.1089598 C162.269473,73.1601298 162.332543,73.2446198 162.357533,73.3421998 L163.175063,76.5016498 C163.201243,76.5992298 163.185773,76.7027598 163.134603,76.7896298 C163.083433,76.8764998 163.000133,76.9395698 162.902553,76.9657498 L151.260783,79.9776399 C151.228653,79.9859699 151.196523,79.9895399 151.165583,79.9895399 Z" id="Fill-15" fill="#007647"></path>
                    <path d="M173.480106,63.2826537 L172.396016,58.4821936 L167.276636,59.6376837 L168.360726,64.4393337 L173.480106,63.2826537 Z M163.378196,57.1981836 L171.902166,55.2727636 C173.519376,54.9074336 175.141346,55.9308336 175.506676,57.5480436 L176.695486,62.8137937 C177.060816,64.4310037 176.061216,66.0470237 174.445196,66.4123537 L178.841056,72.8847638 L175.436466,73.6546938 L171.039416,67.1810937 L169.080676,67.6225837 L170.683606,74.7268838 L167.500356,75.4468338 L163.378196,57.1981836 Z" id="Fill-17" fill="#007647"></path>
                    <path d="M167.730026,59.9299477 L168.646326,63.9878477 L173.023146,63.0001477 L172.106846,58.9422476 L167.730026,59.9299477 Z M168.358346,64.8220377 C168.184606,64.8220377 168.027526,64.7030377 167.988256,64.5257277 L166.905356,59.7264577 C166.882746,59.6276877 166.900596,59.5253477 166.954146,59.4396677 C167.007696,59.3551777 167.093376,59.2944877 167.192146,59.2718777 L172.310336,58.1175776 C172.513826,58.0675976 172.718506,58.1996876 172.763726,58.4043676 L173.849006,63.2036377 C173.870426,63.3024077 173.853766,63.4047477 173.799026,63.4904277 C173.745476,63.5749177 173.659796,63.6356077 173.561026,63.6582177 L168.442836,64.8137077 C168.415466,64.8196577 168.386906,64.8220377 168.358346,64.8220377 Z M163.833966,57.4892576 L167.785956,74.9917778 L170.227836,74.4408078 L168.708206,67.7089777 C168.661796,67.5042977 168.790316,67.3008077 168.994996,67.2543977 L170.954926,66.8117177 C171.104866,66.7724477 171.265516,66.8390877 171.352386,66.9687977 L175.601876,73.2270078 L178.209166,72.6379578 L174.127466,66.6284577 C174.056066,66.5237377 174.041786,66.3916477 174.088196,66.2750277 C174.134606,66.1572177 174.235756,66.0715377 174.358326,66.0441677 C175.039006,65.8906577 175.616156,65.4789177 175.987436,64.8851077 C176.357526,64.2912977 176.476526,63.5868177 176.321826,62.9013777 L175.133016,57.6368176 C174.811716,56.2207176 173.397996,55.3258376 171.984276,55.6483276 L163.833966,57.4892576 Z M167.499166,75.8259678 C167.325426,75.8259678 167.168346,75.7069678 167.129076,75.5296578 L163.009296,57.2857676 C162.962886,57.0810876 163.091406,56.8787876 163.296086,56.8311876 L171.817676,54.9069576 C173.641946,54.4904576 175.461456,55.6447576 175.874386,57.4702176 L177.063196,62.7335877 C177.261926,63.6165677 177.109606,64.5221577 176.632416,65.2873277 C176.250426,65.9001777 175.698266,66.3607077 175.043766,66.6236977 L179.151646,72.6712778 C179.223046,72.7759978 179.237326,72.9068978 179.190916,73.0247078 C179.144506,73.1425178 179.043356,73.2281978 178.920786,73.2555678 L175.516196,74.0254978 C175.361496,74.0611978 175.205606,73.9969378 175.118736,73.8684178 L170.869246,67.6102077 L169.532876,67.9124677 L171.052506,74.6442978 C171.075116,74.7430678 171.057266,74.8454078 171.003716,74.9310878 C170.950166,75.0167678 170.864486,75.0774578 170.765716,75.0988778 L167.582466,75.8176378 C167.555096,75.8235878 167.526536,75.8259678 167.499166,75.8259678 Z" id="Fill-19" fill="#007647"></path>
                    <polygon id="Fill-21" fill="#007647" points="186.924012 71.2837378 183.720532 71.9120578 180.119592 53.5527376 183.325452 52.9244176"></polygon>
                    <path d="M180.56846,53.8590436 L184.02065,71.4662838 L186.47681,70.9855238 L183.02462,53.3770936 L180.56846,53.8590436 Z M183.71958,72.2921438 C183.54227,72.2921438 183.38281,72.1671938 183.34711,71.9851238 L179.74974,53.6329436 C179.70809,53.4270736 179.84256,53.2271536 180.04843,53.1866936 L183.25072,52.5571836 C183.35068,52.5393336 183.45183,52.5595636 183.53632,52.6143036 C183.61962,52.6714236 183.67793,52.7582936 183.69697,52.8570636 L187.29553,71.2116238 C187.31576,71.3103938 187.29434,71.4139238 187.23841,71.4972238 C187.18248,71.5817138 187.09442,71.6376438 186.99565,71.6578738 L183.79336,72.2850038 C183.76837,72.2897638 183.74457,72.2921438 183.71958,72.2921438 Z" id="Fill-23" fill="#007647"></path>
                    <path d="M194.356276,66.6097747 L200.106356,65.6708647 L198.139286,53.6268746 L192.389206,54.5657846 L194.356276,66.6097747 Z M197.864396,50.3876946 C199.499456,50.1211346 201.057166,51.2409246 201.323726,52.8759846 L203.368146,65.3924047 C203.635896,67.0286547 202.516106,68.5839848 200.879856,68.8517348 L194.633546,69.8715648 C192.998486,70.1393148 191.441966,69.0195248 191.174216,67.3832747 L189.129796,54.8680446 C188.863236,53.2329846 189.983026,51.6752746 191.618086,51.4087146 L197.864396,50.3876946 Z" id="Fill-25" fill="#007647"></path>
                    <path d="M192.824627,54.8841096 L194.669127,66.1736397 L199.667127,65.3584897 L197.822627,54.0677696 L192.824627,54.8841096 Z M194.354967,66.9911697 C194.276427,66.9911697 194.197887,66.9661797 194.133627,66.9197697 C194.051517,66.8602697 193.995587,66.7710197 193.980117,66.6722497 L192.013047,54.6318296 C191.979727,54.4235796 192.120147,54.2284196 192.327207,54.1950996 L198.074907,53.2561896 C198.178437,53.2395296 198.276017,53.2645196 198.358127,53.3228296 C198.440237,53.3811396 198.494977,53.4715796 198.511637,53.5703496 L200.478707,65.6107697 C200.512027,65.8178297 200.371607,66.0141797 200.164547,66.0474997 L194.415657,66.9864097 C194.395427,66.9899797 194.375197,66.9911697 194.354967,66.9911697 Z M191.679847,51.7889196 C190.247087,52.0233496 189.272477,53.3787596 189.505717,54.8115196 L191.550137,67.3231797 C191.663187,68.0145697 192.040417,68.6214698 192.612807,69.0343998 C193.186387,69.4449498 193.880157,69.6091698 194.571547,69.4961198 L200.815477,68.4774798 C202.247047,68.2442398 203.222847,66.8876397 202.989607,65.4560697 L200.945187,52.9432196 C200.832137,52.2518296 200.454907,51.6449296 199.882517,51.2343796 C199.310127,50.8214496 198.613977,50.6572296 197.923777,50.7702796 L191.679847,51.7889196 Z M194.143147,70.2922298 C193.441047,70.2922298 192.754417,70.0720798 192.168937,69.6508198 C191.432327,69.1200798 190.945617,68.3382498 190.799247,67.4469397 L188.756017,54.9352796 C188.453757,53.0883996 189.710397,51.3402896 191.557277,51.0392196 L197.801207,50.0193896 C198.688947,49.8718295 199.588587,50.0860296 200.326387,50.6155796 C201.064187,51.1463196 201.550897,51.9305296 201.696077,52.8206496 L203.739307,65.3323097 C204.040377,67.1791897 202.783737,68.9261098 200.936857,69.2283698 L194.694117,70.2470098 C194.510857,70.2779498 194.326407,70.2922298 194.143147,70.2922298 Z" id="Fill-27" fill="#007647"></path>
                    <path d="M215.729271,56.2367826 L215.148551,51.3506426 L209.937541,51.9682526 L210.517071,56.8555826 L215.729271,56.2367826 Z M206.312801,49.1348625 L214.991471,48.1055125 C216.638431,47.9103525 218.143781,49.0967825 218.338941,50.7425526 L218.976781,56.1046926 C219.171941,57.7492726 218.009311,59.2534327 216.363541,59.4485927 L220.064441,66.3434527 L216.597971,66.7551927 L212.897071,59.8603327 L210.901441,60.0971427 L211.760621,67.3287727 L208.517871,67.7143327 L206.312801,49.1348625 Z" id="Fill-29" fill="#007647"></path>
                    <path d="M210.359158,52.3053796 L210.849438,56.4370596 L215.303608,55.9075096 L214.813328,51.7770196 L210.359158,52.3053796 Z M210.516238,57.2391196 C210.431748,57.2391196 210.348448,57.2105596 210.280618,57.1570096 C210.202078,57.0939396 210.150908,57.0034996 210.137818,56.9035396 L209.559478,52.0185896 C209.534488,51.8091496 209.683238,51.6199396 209.891488,51.5949496 L215.101308,50.9761496 C215.203648,50.9701996 215.302418,50.9916196 215.382148,51.0546896 C215.460688,51.1177596 215.511858,51.2081996 215.523758,51.3081596 L216.103288,56.1954896 C216.128278,56.4037396 215.979528,56.5941396 215.770088,56.6179396 L210.560268,57.2367396 C210.545988,57.2379296 210.531708,57.2391196 210.516238,57.2391196 Z M206.736798,49.4743695 L208.851428,67.2922397 L211.336148,66.9983097 L210.523378,60.1462897 C210.498388,59.9368497 210.647138,59.7476397 210.855388,59.7226497 L212.849828,59.4858397 C213.010478,59.4763197 213.156848,59.5465297 213.229438,59.6833797 L216.808958,66.3473797 L219.460278,66.0332197 L216.024748,59.6322097 C215.965248,59.5203497 215.965248,59.3882597 216.023558,59.2763997 C216.081868,59.1657297 216.190158,59.0895697 216.315108,59.0740997 C217.743108,58.9051196 218.765318,57.5937396 218.593958,56.1526496 L217.958498,50.7928896 C217.875198,50.0979296 217.525338,49.4743695 216.971988,49.0388295 C216.417448,48.6032895 215.728438,48.4057495 215.034668,48.4902395 L206.736798,49.4743695 Z M208.518228,68.0942998 C208.327828,68.0942998 208.163608,67.9514997 208.140998,67.7587197 L205.937118,49.1875795 C205.912128,48.9781395 206.060878,48.7889295 206.269128,48.7639395 L214.945418,47.7345895 C215.839108,47.6274895 216.729228,47.8785795 217.442038,48.4414495 C218.154848,49.0031295 218.607048,49.8063795 218.714148,50.7024496 L219.349608,56.0622096 C219.548338,57.7365396 218.495188,59.2740197 216.936288,59.7226497 L220.395618,66.1641197 C220.453928,66.2759797 220.455118,66.4092597 220.396808,66.5199297 C220.338498,66.6317897 220.229018,66.7079497 220.104068,66.7222297 L216.641168,67.1327797 C216.482898,67.1470597 216.334148,67.0720897 216.261558,66.9352397 L212.683228,60.2712397 L211.323058,60.4330797 L212.135828,67.2850997 C212.147728,67.3862497 212.119168,67.4862097 212.057288,67.5659397 C211.994218,67.6456697 211.902588,67.6968397 211.802628,67.7075497 L208.563448,68.0919198 C208.547978,68.0931098 208.532508,68.0942998 208.518228,68.0942998 Z" id="Fill-31" fill="#007647"></path>
                    <path d="M238.023684,61.6742497 L243.842784,61.3910297 L243.248974,49.2018595 L237.429874,49.4850795 L238.023684,61.6742497 Z M243.342984,45.9531595 C244.997084,45.8722395 246.419134,47.1621995 246.498864,48.8162995 L247.116474,61.4838497 C247.197394,63.1379497 245.908624,64.5588097 244.253334,64.6397297 L237.932054,64.9479397 C236.276764,65.0276697 234.855904,63.7388997 234.776174,62.0847997 L234.158564,49.4172495 C234.078834,47.7631495 235.366414,46.3410995 237.021704,46.2613695 L243.342984,45.9531595 Z" id="Fill-33" fill="#007647"></path>
                    <path d="M237.826739,49.8498145 L238.383659,61.2773847 L243.441159,61.0298647 L242.885429,49.6046745 L237.826739,49.8498145 Z M238.023089,62.0556447 C237.927889,62.0556447 237.837449,62.0211347 237.767239,61.9568747 C237.692269,61.8890447 237.648239,61.7950347 237.642289,61.6938847 L237.048479,49.5070945 C237.043719,49.4059445 237.079419,49.3071745 237.147249,49.2322045 C237.215079,49.1584245 237.309089,49.1132045 237.410239,49.1084445 L243.228149,48.8264145 C243.437589,48.8168945 243.616089,48.9775445 243.626799,49.1869845 L244.219419,61.3725847 C244.228939,61.5820247 244.068289,61.7605247 243.857659,61.7712347 L238.040939,62.0556447 L238.023089,62.0556447 Z M237.038959,46.6463345 C236.340429,46.6796545 235.694259,46.9866745 235.220639,47.5090845 C234.747019,48.0326845 234.504259,48.7050345 234.538769,49.4035645 L235.155189,62.0663547 C235.225399,63.5157747 236.462999,64.6296147 237.912419,64.5665447 L244.231319,64.2583347 C244.929849,64.2250147 245.576019,63.9179947 246.049639,63.3967747 C246.524449,62.8731747 246.766019,62.2008247 246.731509,61.5022947 L246.115089,48.8395045 C246.044879,47.3912745 244.810849,46.2714845 243.357859,46.3381245 L237.038959,46.6463345 Z M237.781519,65.3305247 C235.986999,65.3305247 234.484029,63.9156147 234.394779,62.1032447 L233.779549,49.4404545 C233.735519,48.5384345 234.047299,47.6721145 234.656579,46.9985745 C235.267049,46.3250345 236.100049,45.9299545 237.002069,45.8859245 L243.320969,45.5777145 C245.186889,45.4944145 246.783869,46.9355045 246.875499,48.8026145 L247.491919,61.4654047 C247.535949,62.3674247 247.222979,63.2337447 246.612509,63.9072847 C246.003229,64.5808247 245.169039,64.9747147 244.268209,65.0187447 L237.950499,65.3269547 C237.893379,65.3293347 237.837449,65.3305247 237.781519,65.3305247 Z" id="Fill-35" fill="#007647"></path>
                    <path d="M255.132909,48.8817495 L255.248339,61.0863897 L261.073389,61.0316497 L260.959149,48.8270095 L255.132909,48.8817495 Z M264.222129,48.5699695 L264.339939,61.2529897 C264.356599,62.9094697 263.013089,64.2779697 261.355419,64.2922497 L252.013919,64.3803097 L251.837799,45.6735095 L261.180489,45.5842595 C262.836969,45.5699795 264.205469,46.9134895 264.222129,48.5699695 Z" id="Fill-37" fill="#007647"></path>
                    <path d="M255.515732,49.2629065 L255.622832,60.7035667 L260.686282,60.6559667 L260.579182,49.2153065 L255.515732,49.2629065 Z M255.245602,61.4675467 C255.146832,61.4675467 255.050442,61.4294667 254.980232,61.3580667 C254.907642,61.2878567 254.867182,61.1914667 254.865992,61.0903167 L254.751752,48.8904365 C254.749372,48.6798065 254.919542,48.5084465 255.128982,48.5060665 L260.952842,48.4513265 C261.024242,48.4656065 261.150382,48.4894065 261.221782,48.5608065 C261.294372,48.6310165 261.336022,48.7274065 261.336022,48.8285565 L261.450262,61.0296267 C261.452642,61.2390667 261.283662,61.4104267 261.073032,61.4128067 L255.249172,61.4675467 L255.245602,61.4675467 Z M252.221812,46.0558565 L252.390792,63.9986767 L261.349112,63.9141867 C262.800912,63.8999067 263.969492,62.7075267 263.956402,61.2569167 L263.836212,48.5798465 C263.830262,47.8789365 263.548232,47.2208665 263.046052,46.7270165 C262.541492,46.2319765 261.848912,45.9523265 261.180132,45.9713665 L252.221812,46.0558565 Z M252.014752,64.7614667 C251.914792,64.7614667 251.819592,64.7233867 251.748192,64.6543667 C251.675602,64.5829667 251.635142,64.4865767 251.633952,64.3854267 L251.457832,45.6821965 C251.456642,45.5810465 251.495912,45.4846565 251.567312,45.4132565 C251.637522,45.3406665 251.733912,45.3002065 251.835062,45.2990165 L261.172992,45.2121465 L261.206312,45.2121465 C262.096432,45.2121465 262.937762,45.5560565 263.577982,46.1843765 C264.226532,46.8210265 264.588292,47.6694965 264.596622,48.5727065 L264.716812,61.2497767 C264.734662,63.1204567 263.226932,64.6555567 261.356252,64.6734067 L252.018322,64.7614667 L252.014752,64.7614667 Z" id="Fill-39" fill="#007647"></path>
                    <path d="M272.451217,61.1955127 L278.273887,61.3966227 L278.696337,49.2003125 L272.873667,48.9992025 L272.451217,61.1955127 Z M279.059287,45.9706525 C280.714577,46.0277725 282.023577,47.4307825 281.966457,49.0860725 L281.527347,61.7607627 C281.470227,63.4160527 280.067217,64.7262427 278.411927,64.6691227 L272.087077,64.4489727 C270.430597,64.3930427 269.122787,62.9888427 269.179907,61.3323627 L269.619017,48.6588625 C269.676137,47.0023825 271.077957,45.6945725 272.734437,45.7505025 L279.059287,45.9706525 Z" id="Fill-41" fill="#007647"></path>
                    <path d="M272.842846,60.8294687 L277.902726,61.0043987 L278.298996,49.5720685 L273.239116,49.3959485 L272.842846,60.8294687 Z M278.270436,61.7778987 L278.256156,61.7778987 L272.435866,61.5767887 C272.335906,61.5732187 272.240706,61.5303787 272.171686,61.4554087 C272.102666,61.3828187 272.065776,61.2840487 272.069346,61.1840887 L272.492986,48.9901585 C272.495366,48.8890085 272.539396,48.7938085 272.613176,48.7247885 C272.686956,48.6557685 272.783346,48.6260185 272.885686,48.6224485 L278.705976,48.8247485 C278.915416,48.8318885 279.079636,49.0080085 279.072496,49.2174485 L278.650046,61.4101887 C278.642906,61.6160587 278.473926,61.7778987 278.270436,61.7778987 Z M272.628646,46.1365385 C271.218496,46.1365385 270.046346,47.2587085 269.997556,48.6771885 L269.559636,61.3483087 C269.535836,62.0468387 269.786926,62.7168087 270.267686,63.2332687 C270.749636,63.7485387 271.399376,64.0448487 272.099096,64.0698387 L278.421566,64.2876087 C279.115336,64.3244987 279.790066,64.0615087 280.306526,63.5807487 C280.821796,63.0976087 281.119296,62.4478687 281.143096,61.7493387 L281.582206,49.0794085 C281.632186,47.6287985 280.493356,46.4078585 279.041556,46.3566885 L272.719086,46.1377285 C272.689336,46.1365385 272.658396,46.1365385 272.628646,46.1365385 Z M278.515576,65.0503987 C278.475116,65.0503987 278.434656,65.0492087 278.395386,65.0480187 L272.072916,64.8290587 C271.170896,64.7981187 270.331946,64.4161287 269.713146,63.7509187 C269.093156,63.0868987 268.768286,62.2241487 268.800416,61.3221287 L269.237146,48.6521985 C269.301406,46.7815185 270.901956,45.3356685 272.745266,45.3785085 L272.746456,45.3785085 L279.068926,45.5962785 C280.938416,45.6617285 282.406876,47.2360985 282.342616,49.1043985 L281.903506,61.7755187 C281.872566,62.6775387 281.489386,63.5164887 280.825366,64.1352887 C280.189906,64.7279087 279.373566,65.0503987 278.515576,65.0503987 Z" id="Fill-43" fill="#007647"></path>
                    <path d="M295.434877,55.1804196 L295.813297,50.2740496 L290.582057,49.8694495 L290.202447,54.7758196 L295.434877,55.1804196 Z M287.576117,46.3863195 L296.290487,47.0610495 C297.942207,47.1883795 299.189327,48.6461295 299.061997,50.2966596 L298.645497,55.6814096 C298.518167,57.3331296 297.085407,58.5814396 295.433687,58.4552996 L297.726817,65.9356397 L294.246067,65.6678897 L291.954127,58.1851696 L289.951357,58.0316596 L289.389677,65.2918497 L286.135027,65.0395697 L287.576117,46.3863195 Z" id="Fill-45" fill="#007647"></path>
                    <path d="M290.608594,54.4296486 L295.082994,54.7759386 L295.403104,50.6287886 L290.931084,50.2824986 L290.608594,54.4296486 Z M295.432854,55.5637186 C295.423334,55.5637186 295.412624,55.5637186 295.403104,55.5625286 L290.171864,55.1579286 C290.070714,55.1507886 289.977894,55.1031886 289.912444,55.0270286 C289.845804,54.9496786 289.813674,54.8509086 289.822004,54.7509486 L290.201614,49.8445785 C290.217084,49.6363285 290.400344,49.4721085 290.609784,49.4959085 L295.839834,49.8993185 C296.049274,49.9159786 296.206354,50.0980486 296.189694,50.3074886 L295.811274,55.2126686 C295.804134,55.3138186 295.756534,55.4066386 295.680374,55.4720886 C295.610164,55.5315886 295.523294,55.5637186 295.432854,55.5637186 Z M294.532024,65.3086287 L297.196434,65.5144987 L295.067524,58.5696586 C295.030634,58.4482786 295.055624,58.3185686 295.135354,58.2197986 C295.212704,58.1234086 295.335274,58.0615286 295.460224,58.0781886 C296.159944,58.1234086 296.829914,57.9092086 297.359464,57.4498686 C297.887824,56.9917186 298.209124,56.3538786 298.262674,55.6541586 L298.679174,50.2729786 C298.789844,48.8259385 297.703374,47.5585885 296.257524,47.4455385 L287.925144,46.8017485 L286.542364,64.6910187 L289.038984,64.8837987 L289.570914,58.0044086 C289.586384,57.7949686 289.767264,57.6295586 289.979084,57.6545486 L291.980664,57.8092486 C292.136554,57.8211486 292.269834,57.9270586 292.316244,58.0758086 L294.532024,65.3086287 Z M297.723604,66.3165587 C297.714084,66.3165587 297.703374,66.3165587 297.693854,66.3153687 L294.215484,66.0464287 C294.059594,66.0345287 293.927504,65.9274287 293.881094,65.7786787 L291.665314,58.5470486 L290.299194,58.4411386 L289.767264,65.3205287 C289.750604,65.5299687 289.560204,65.6977587 289.359094,65.6703887 L286.105634,65.4192987 C286.004484,65.4121587 285.911664,65.3645587 285.846214,65.2883987 C285.779574,65.2122387 285.747444,65.1122787 285.755774,65.0123187 L287.196864,46.3650185 C287.212334,46.1555785 287.401544,45.9937385 287.605034,46.0151585 L296.315834,46.6875085 C298.179374,46.8314985 299.580004,48.4653685 299.437204,50.3312886 L299.019514,55.7124686 C298.951684,56.6132986 298.537564,57.4343986 297.856884,58.0246386 C297.311864,58.4982586 296.646654,58.7767186 295.944554,58.8350286 L298.086554,65.8250887 C298.123444,65.9464687 298.098454,66.0761787 298.019914,66.1749487 C297.947324,66.2641987 297.837844,66.3165587 297.723604,66.3165587 Z" id="Fill-47" fill="#007647"></path>
                    <path d="M324.958183,66.3842697 C324.715423,68.0252797 323.174373,69.1664898 321.535743,68.9249198 L315.523862,68.0347997 C313.884042,67.7908497 312.746402,66.2259997 312.984402,64.6123597 L314.843182,52.0673796 C315.085942,50.4275596 316.624612,49.2851595 318.265623,49.5267295 L324.276313,50.4180396 C325.916133,50.6607996 327.058533,52.1994696 326.816963,53.8404796 L326.436163,56.3989796 L323.232683,55.9241696 L323.578973,53.5893896 L318.039523,52.7694796 L316.250952,64.8408397 L321.790403,65.6619397 L322.192623,62.9534997 L325.396103,63.4283097 L324.958183,66.3842697 Z" id="Fill-49" fill="#007647"></path>
                    <path d="M317.819373,49.8812305 C316.536552,49.8812305 315.410812,50.8225206 315.216842,52.1279506 L313.360442,64.6693607 C313.151002,66.0795107 314.168452,67.4492007 315.578602,67.6574507 L321.588103,68.5487608 C322.275923,68.6522908 322.972073,68.4749808 323.539703,68.0549107 C324.106143,67.6348407 324.475043,67.0208007 324.577383,66.3282207 L324.959373,63.7506807 L322.507973,63.3877307 L322.162873,65.7189407 C322.148593,65.8189007 322.095043,65.9081507 322.012933,65.9688407 C321.932013,66.0271507 321.829673,66.0497607 321.730903,66.0390507 L316.193832,65.2191407 C315.985582,65.1870107 315.842782,64.9942307 315.872532,64.7859807 L317.659913,52.7181906 C317.690853,52.5111306 317.888393,52.3695206 318.091883,52.3968906 L323.630143,53.2168006 C323.730103,53.2310806 323.819353,53.2846306 323.880043,53.3667406 C323.939543,53.4476606 323.964533,53.5488106 323.950253,53.6487706 L323.659893,55.6075106 L326.112483,55.9704606 L326.434973,53.7880006 C326.646793,52.3528606 325.651953,51.0117306 324.216813,50.7987206 L318.206123,49.9097905 C318.076413,49.8907505 317.946703,49.8812305 317.819373,49.8812305 M321.976043,69.3377308 C321.810633,69.3377308 321.644033,69.3258308 321.476243,69.3008408 L315.466742,68.4107208 C313.648422,68.1417808 312.339422,66.3770107 312.607172,64.5575007 L314.464762,52.0160906 C314.596852,51.1235906 315.071662,50.3334306 315.802322,49.7919805 C316.530602,49.2505305 317.418342,49.0232405 318.317983,49.1577105 L324.328673,50.0466406 C326.177933,50.3203406 327.460753,52.0494106 327.188243,53.8998606 L326.809823,56.4571706 C326.778883,56.6630406 326.596813,56.8070306 326.376663,56.7784706 L323.171993,56.3048506 C323.072033,56.2905706 322.982783,56.2370206 322.922093,56.1549106 C322.862593,56.0739906 322.837603,55.9728406 322.851883,55.8728806 L323.142243,53.9141406 L318.357253,53.2060906 L316.681732,64.5218007 L321.465533,65.2298507 L321.810633,62.8986407 C321.826103,62.7986807 321.879653,62.7094307 321.960573,62.6487407 C322.042683,62.5892407 322.142643,62.5642507 322.243793,62.5785307 L325.447273,63.0533407 C325.655523,63.0854707 325.798323,63.2782507 325.768573,63.4865007 L325.330653,66.4400807 C325.197373,67.3337707 324.722563,68.1239308 323.991903,68.6653808 C323.399283,69.1056808 322.698373,69.3377308 321.976043,69.3377308" id="Fill-51" fill="#007647"></path>
                    <path d="M332.990683,67.5696287 L338.712203,68.6703788 L341.017233,56.6858886 L335.296903,55.5851386 L332.990683,67.5696287 Z M341.877603,53.5526186 C343.504333,53.8643986 344.580093,55.4530486 344.267123,57.0809686 L341.870463,69.5343188 C341.556303,71.1622388 339.968843,72.2368088 338.339733,71.9238388 L332.126743,70.7278888 C330.497633,70.4149188 329.424253,68.8274588 329.738413,67.1995387 L332.133883,54.7461886 C332.448043,53.1182686 334.035503,52.0425086 335.662233,52.3566686 L341.877603,53.5526186 Z" id="Fill-53" fill="#007647"></path>
                    <path d="M333.433482,67.2698677 L338.407682,68.2266278 L340.568722,56.9906476 L335.595712,56.0350776 L333.433482,67.2698677 Z M338.708752,69.0512978 C338.684952,69.0512978 338.661152,69.0489178 338.636162,69.0441578 L332.915832,67.9434077 C332.817062,67.9255577 332.730192,67.8672477 332.673072,67.7839477 C332.615952,67.7006477 332.595722,67.5971177 332.615952,67.4983477 L334.922172,55.5174276 C334.960252,55.3115576 335.150652,55.1747076 335.367232,55.2163576 L341.086372,56.3171076 C341.292242,56.3563776 341.426712,56.5551076 341.387442,56.7621676 L339.081222,68.7430878 C339.046712,68.9251578 338.887252,69.0512978 338.708752,69.0512978 Z M335.089962,52.6876076 C334.569932,52.6876076 334.059422,52.8434976 333.616742,53.1433776 C333.032452,53.5396476 332.638562,54.1358376 332.506472,54.8236576 L330.109812,67.2722477 C329.837302,68.6966778 330.773832,70.0794578 332.198262,70.3555378 L338.410062,71.5502978 C339.841632,71.8275678 341.217272,70.8862778 341.492162,69.4630378 L343.888822,57.0132576 C344.162522,55.5888276 343.225992,54.2048576 341.800372,53.9311576 L335.588572,52.7352076 C335.421972,52.7042676 335.255372,52.6876076 335.089962,52.6876076 Z M338.909862,72.3571178 C338.695662,72.3571178 338.480272,72.3380778 338.266072,72.2964278 L332.054272,71.1016678 C330.218102,70.7482378 329.010252,68.9656178 329.363682,67.1282577 L331.760342,54.6796676 C331.929322,53.7931176 332.438642,53.0231876 333.190722,52.5138676 C333.943992,52.0045476 334.843632,51.8153376 335.732562,51.9890776 L341.944362,53.1850276 C343.780532,53.5372676 344.988382,55.3198876 344.634952,57.1572476 L342.238292,69.6070278 C342.068122,70.4935778 341.559992,71.2611278 340.806722,71.7716378 C340.236712,72.1571978 339.579832,72.3571178 338.909862,72.3571178 Z" id="Fill-55" fill="#007647"></path>
                    <polygon id="Fill-57" fill="#007647" points="350.198083 55.2733586 354.012033 56.1622886 356.552683 68.0491987 359.050493 57.3368186 362.228983 58.0781886 357.979493 76.2982788 354.849793 75.5688088 351.967613 62.0551687 349.128273 74.2336288 345.949783 73.4934488"></polygon>
                    <path d="M355.168356,75.2523878 L357.692346,75.8402478 L361.768096,58.3674776 L359.329786,57.7986576 L356.918846,68.1373778 C356.878386,68.3099278 356.724876,68.4313078 356.547566,68.4313078 L356.543996,68.4313078 C356.366686,68.4301178 356.213176,68.3039778 356.176286,68.1302378 L353.687996,56.4825176 L350.479756,55.7351976 L346.404006,73.2079678 L348.843506,73.7767878 L351.594786,61.9731777 C351.635246,61.7994377 351.788756,61.6792477 351.966066,61.6792477 C352.136236,61.7185177 352.300456,61.8053877 352.337346,61.9803177 L355.168356,75.2523878 Z M357.975566,76.6768178 C357.948196,76.6768178 357.919636,76.6732478 357.889886,76.6672978 L354.760186,75.9378278 C354.616196,75.9045078 354.504336,75.7902678 354.474586,75.6462778 L351.949406,63.8045877 L349.496816,74.3194278 C349.448026,74.5241078 349.250486,74.6478678 349.041046,74.6038378 L345.861366,73.8624678 C345.762596,73.8398578 345.676916,73.7779778 345.623366,73.6922978 C345.571006,73.6066178 345.554346,73.5030878 345.575766,73.4055078 L349.825256,55.1925576 C349.874046,54.9890676 350.071586,54.8664976 350.282216,54.9069576 L354.096166,55.7958876 C354.240156,55.8303976 354.350826,55.9434476 354.381766,56.0886276 L356.564226,66.3071577 L358.675286,57.2560176 C358.724076,57.0525276 358.921616,56.9311476 359.132246,56.9716076 L362.310736,57.7129776 C362.515416,57.7605776 362.642746,57.9652576 362.595146,58.1699376 L358.346846,76.3828878 C358.305196,76.5590078 358.149306,76.6768178 357.975566,76.6768178 Z" id="Fill-59" fill="#007647"></path>
                    <polygon id="Fill-61" fill="#007647" points="369.482152 79.2848219 366.325082 78.4542019 370.263982 63.4947117 366.622582 62.5355717 367.447252 59.4023017 377.889502 62.1535817 377.064832 65.2856617 373.422242 64.3265217"></polygon>
                    <path d="M366.788349,78.1820489 L369.208809,78.8198889 L373.051319,64.2328687 C373.076309,64.1352887 373.139379,64.0519887 373.226249,64.0008187 C373.314309,63.9496487 373.419029,63.9329887 373.514229,63.9627387 L376.789109,64.8242987 L377.419809,62.4276387 L367.716549,59.8727087 L367.085849,62.2693687 L370.359539,63.1309287 C370.457119,63.1559187 370.540419,63.2189887 370.591589,63.3058587 C370.641569,63.3927287 370.655849,63.4962587 370.630859,63.5938387 L366.788349,78.1820489 Z M369.480129,79.6647889 C369.446809,79.6647889 369.414679,79.6612189 369.383739,79.6516989 L366.226669,78.8198889 C366.023179,78.7663389 365.902989,78.5580889 365.956539,78.3557889 L369.797859,63.7687687 L366.524169,62.9072087 C366.426589,62.8822187 366.343289,62.8191487 366.292119,62.7322787 C366.242139,62.6442187 366.227859,62.5406887 366.254039,62.4431087 L367.078709,59.3122187 C367.131069,59.1099187 367.335749,58.9825886 367.542809,59.0408987 L377.980299,61.7897987 C378.183789,61.8433487 378.305169,62.0492187 378.251619,62.2527087 L377.426949,65.3859787 C377.401959,65.4835587 377.338889,65.5668587 377.252019,65.6180287 C377.163959,65.6680087 377.058049,65.6834787 376.964039,65.6572987 L373.689159,64.7945487 L369.846649,79.3815689 C369.821659,79.4791489 369.758589,79.5624489 369.671719,79.6136189 C369.612219,79.6469389 369.545579,79.6647889 369.480129,79.6647889 Z" id="Fill-63" fill="#007647"></path>
                    <path d="M388.966022,73.6776608 L390.278592,68.9343208 L385.221092,67.5348807 L383.907332,72.2770308 L388.966022,73.6776608 Z M382.938672,63.5400507 L391.361492,65.8712607 C392.957282,66.3151307 393.902142,67.9823207 393.460652,69.5804908 L392.020752,74.7831708 C391.579262,76.3801508 389.933492,77.3321509 388.336512,76.8906608 L389.154042,84.6720709 L385.788722,83.7426809 L384.973572,75.9588908 L383.037442,75.4233908 L381.094172,82.4420109 L377.947812,81.5721209 L382.938672,63.5400507 Z" id="Fill-65" fill="#007647"></path>
                    <path d="M384.372265,72.0147548 L388.696725,73.2118948 L389.805805,69.2027848 L385.482535,68.0068347 L384.372265,72.0147548 Z M388.960905,74.0603648 C388.927585,74.0603648 388.894265,74.0556048 388.859755,74.0460848 L383.802255,72.6454548 C383.704675,72.6192748 383.622565,72.5550148 383.572585,72.4669548 C383.523795,72.3800848 383.510705,72.2753648 383.538075,72.1789748 L384.850645,67.4368247 C384.906575,67.2345247 385.117205,67.1143347 385.318315,67.1726447 L390.375815,68.5708948 C390.473395,68.5982648 390.555505,68.6625248 390.605485,68.7505848 C390.654275,68.8374548 390.667365,68.9421748 390.641185,69.0385648 L389.327425,73.7807148 C389.281015,73.9496948 389.128695,74.0603648 388.960905,74.0603648 Z M386.137035,83.4435149 L388.713385,84.1563249 L387.956545,76.9306448 C387.942265,76.8045048 387.992245,76.6819348 388.088635,76.6010148 C388.182645,76.5200948 388.315925,76.4903448 388.434925,76.5248548 C389.109655,76.7093048 389.811755,76.6212448 390.418655,76.2725748 C391.025555,75.9250948 391.462285,75.3610348 391.649115,74.6839248 L393.089015,69.4824348 C393.274655,68.8077048 393.186595,68.0984648 392.839115,67.4832347 C392.490445,66.8703847 391.928765,66.4300847 391.254035,66.2420647 L383.201305,64.0143847 L378.415125,81.3074649 L380.827255,81.9738649 L382.668185,75.3241448 C382.695555,75.2265648 382.759815,75.1444548 382.847875,75.0944748 C382.933555,75.0444948 383.040655,75.0314048 383.135855,75.0599648 L385.070795,75.5954648 C385.221925,75.6371148 385.331405,75.7656348 385.346875,75.9215248 L386.137035,83.4435149 Z M389.150115,85.0512049 C389.115605,85.0512049 389.082285,85.0464449 389.048965,85.0369249 L385.686025,84.1075349 C385.534895,84.0670749 385.425415,83.9373649 385.408755,83.7814749 L384.618595,76.2582948 L383.300075,75.8941548 L381.459145,82.5426849 C381.402025,82.7449849 381.189015,82.8616049 380.991475,82.8068649 L377.846305,81.9381649 C377.748725,81.9107949 377.665425,81.8477249 377.615445,81.7584749 C377.566655,81.6716049 377.554755,81.5668849 377.580935,81.4704949 L382.569415,63.4455647 C382.625345,63.2432647 382.835975,63.1242647 383.037085,63.1801947 L391.456335,65.5102147 C392.327415,65.7505947 393.053315,66.3194147 393.500755,67.1095747 C393.948195,67.8997347 394.062435,68.8148448 393.820865,69.6847348 L392.380965,74.8862248 C392.140585,75.7584948 391.578905,76.4843948 390.797075,76.9330248 C390.171135,77.2924049 389.466655,77.4363949 388.764555,77.3602349 L389.527345,84.6323249 C389.541625,84.7560849 389.491645,84.8810349 389.395255,84.9619549 C389.326235,85.0202649 389.238175,85.0512049 389.150115,85.0512049 Z" id="Fill-67" fill="#007647"></path>
                    <path d="M397.83414,83.6555729 L403.46998,85.1252229 L406.55089,73.3168528 L400.91386,71.8460128 L397.83414,83.6555729 Z M407.61118,70.2442728 C409.215301,70.6631528 410.185151,72.3172528 409.766271,73.9201828 L406.56636,86.1926529 C406.14748,87.795583 404.49576,88.766623 402.89045,88.347743 L396.7679,86.751953 C395.16378,86.333073 394.19274,84.6777829 394.61162,83.0748529 L397.81153,70.8023828 C398.23041,69.1994528 399.8857,68.2296028 401.48863,68.6484828 L407.61118,70.2442728 Z" id="Fill-69" fill="#007647"></path>
                    <path d="M398.295503,83.3836579 L403.195923,84.6617179 L406.082863,73.5911478 L401.182443,72.3142778 L398.295503,83.3836579 Z M403.468433,85.5054279 C403.435113,85.5054279 403.404173,85.5018579 403.372043,85.4935279 L397.735013,84.0238779 C397.532713,83.9703279 397.411333,83.7620779 397.463693,83.5585879 L400.542223,71.7549778 C400.595773,71.5526778 400.798073,71.4301078 401.006323,71.4824678 L406.643353,72.9509278 C406.739743,72.9771078 406.823043,73.0413678 406.874213,73.1270478 C406.925383,73.2139178 406.939663,73.3186378 406.914673,73.4162178 L403.836143,85.2222079 C403.811153,85.3197879 403.746893,85.4018979 403.660023,85.4530679 C403.601713,85.4887679 403.535073,85.5054279 403.468433,85.5054279 Z M400.726673,68.9346778 C399.558093,68.9346778 398.485903,69.7224578 398.176503,70.9053178 L394.978973,83.1718379 C394.801663,83.8489479 394.901623,84.5558079 395.258623,85.1650879 C395.615623,85.7743679 396.184443,86.2063379 396.860363,86.382458 L402.982913,87.977058 C403.655263,88.156748 404.366883,88.055598 404.976163,87.699788 C405.585443,87.342788 406.017413,86.773968 406.194723,86.0956679 L409.392254,73.8279578 C409.759964,72.4249478 408.915064,70.9838578 407.509673,70.6161478 L401.389503,69.0215478 L401.390693,69.0215478 C401.168163,68.9632378 400.946823,68.9346778 400.726673,68.9346778 Z M403.648123,88.824338 C403.362523,88.824338 403.074543,88.787448 402.790133,88.713668 L396.668773,87.119068 C394.858783,86.646638 393.771123,84.7914279 394.242363,82.9802479 L397.439893,70.7125378 C397.913513,68.9049278 399.771103,67.8125077 401.581093,68.2849378 L401.582283,68.2849378 L407.702453,69.8795378 C409.512444,70.3543478 410.601294,72.2107478 410.128864,74.0207378 L406.931333,86.288448 C406.701663,87.161908 406.145933,87.896138 405.360533,88.355478 C404.830983,88.664878 404.243123,88.824338 403.648123,88.824338 Z" id="Fill-71" fill="#007647"></path>
                    <polygon id="Fill-73" fill="#007647" points="411.350637 90.427149 414.942057 72.0654488 418.145537 72.6925788 415.181247 87.849609 422.278407 89.238339 421.651277 92.441819"></polygon>
                    <path d="M411.795697,90.127388 L421.347827,91.995688 L421.828587,89.538338 L415.105087,88.223388 C415.006317,88.204348 414.919447,88.147228 414.863517,88.063928 C414.806397,87.979438 414.786167,87.875908 414.805207,87.777138 L417.695717,72.9973378 L415.240747,72.5189578 L411.795697,90.127388 Z M421.647707,92.822738 C421.623907,92.822738 421.598917,92.820358 421.575117,92.815598 L411.275667,90.799738 C411.070987,90.759278 410.935327,90.560548 410.976977,90.353488 L414.567207,72.0001178 C414.605287,71.7954378 414.800447,71.6550178 415.013457,71.7002378 L418.215747,72.3249878 C418.314517,72.3452178 418.401387,72.4011478 418.457317,72.4856378 C418.514437,72.5689378 418.534667,72.6724678 418.514437,72.7712378 L415.625117,87.551038 L422.347427,88.864798 C422.553297,88.906448 422.687767,89.105178 422.647307,89.311048 L422.021367,92.515718 C422.001137,92.614488 421.944017,92.701358 421.860717,92.757288 C421.796457,92.800128 421.723867,92.822738 421.647707,92.822738 Z" id="Fill-75" fill="#007647"></path>
                    <path d="M507.00379,115.12667 C517.62454,93.19497 499.7555,78.1248099 484.354519,63.9138297 C462.452569,43.7076295 457.909149,24.0964293 468.733389,12.8390291 C463.765139,22.2316992 465.045579,41.3026395 498.414369,63.2152997 C525.38334,80.9248799 527.40753,109.16834 507.00379,115.12667" id="Fill-77" fill="#007647"></path>
                    <path d="M477.945298,33.9649804 C469.722398,33.9649804 465.939388,28.9360403 465.140898,24.2295903 C464.148438,18.3712202 467.259098,12.4236001 472.221398,10.6897701 L472.952058,12.7817901 C468.516928,14.3299802 466.608168,19.6302402 467.324548,23.8595003 C468.162308,28.8003803 472.132148,31.7503903 477.945298,31.7503903 L477.945298,33.9649804 Z" id="Fill-79" fill="#007647"></path>
                    <path d="M456.209115,110.786145 C437.146505,110.786145 411.638855,102.637025 393.108174,96.7179651 C388.268444,95.172155 384.090354,93.836975 380.642924,92.846895 L377.240714,91.862765 C354.653324,85.3165749 316.850593,74.3590548 260.977713,74.3590548 L260.977713,72.1432748 C317.164753,72.1432748 356.645384,83.5886949 377.855944,89.736235 L381.254584,90.717985 C384.732954,91.718775 388.925324,93.057525 393.780524,94.608095 C417.054545,102.043215 456.009195,114.485855 472.400255,105.306195 C476.136855,102.873835 477.363745,99.7774551 477.724315,97.6152251 C478.176515,94.902025 477.520825,92.021035 476.016665,90.096805 C473.884185,87.372895 470.348695,86.265005 467.005985,87.269365 C464.035745,88.164245 462.048445,90.526395 461.818775,93.433565 C461.576015,96.5085251 463.477635,98.0888451 465.339985,98.5434251 C467.223755,99.0039551 469.569245,98.4351351 470.404625,96.4597351 L472.445475,97.3224851 C471.125765,100.437905 467.610505,101.376815 464.814005,100.696135 C462.193625,100.054725 459.259085,97.7235151 459.610135,93.258635 C459.913585,89.420885 462.503025,86.313795 466.366955,85.1499749 C470.590265,83.8766749 475.062285,85.2844449 477.758825,88.733065 C479.636645,91.129725 480.458935,94.673545 479.907965,97.9793651 C479.474805,100.580705 478.019435,104.291125 473.545035,107.199485 C468.996855,109.748465 463.012345,110.786145 456.209115,110.786145" id="Fill-81" fill="#007647"></path>
                    <path d="M435.319141,65.8277067 C416.740861,65.8288967 391.16419,58.6496266 373.66167,53.7384966 C370.83899,52.9471466 368.23289,52.2152966 365.90763,51.5845966 C343.49279,45.5072665 302.354489,39.3751964 260.978189,39.3751964 L260.978189,37.1594164 C302.559169,37.1594164 343.92952,43.3319465 366.48597,49.4461665 C368.81837,50.0792466 371.43042,50.8122866 374.25905,51.6060166 C399.34306,58.6448666 441.319121,70.4199168 453.491631,58.7721966 C456.728431,55.6746266 457.587611,51.1157366 456.119151,44.8361065 L458.275431,44.3327365 C459.915251,51.3406466 458.820451,56.7372966 455.023161,60.3715567 C450.905761,64.3140267 443.847871,65.8265167 435.319141,65.8277067" id="Fill-83" fill="#007647"></path>
                    <path d="M457.550245,16.8575402 C450.863635,36.1153104 466.044465,54.6935906 482.800855,71.5439908 C499.557246,88.392011 505.365636,107.040501 497.087995,117.824281 C488.809165,128.608061 476.612855,123.439891 476.612855,123.439891 C487.683425,118.722731 489.577905,102.378081 486.292315,91.988191 C482.157065,78.9089009 471.209065,69.7970708 464.097625,59.2608107 C454.954855,45.7126605 449.125045,32.2537604 457.550245,16.8575402" id="Fill-85" fill="#007647"></path>
                    <g id="Group-89" transform="translate(478.380005, 37.920540)">
                        <mask id="mask-2" fill="white">
                            <use xlink:href="#path-1"></use>
                        </mask>
                        <g id="Clip-88"></g>
                        <path d="M0.253232003,0.202419002 C6.01640207,11.0790191 23.0226923,21.9746592 34.1884624,22.5779892 C47.8341925,23.3157893 44.6307125,10.0603791 37.0278024,12.2273691 C30.2959723,14.1480292 28.6870923,11.0111891 31.3348423,8.6311891 C32.9139724,7.21389908 35.1987724,3.29046904 31.7525323,1.38170902 C28.3027223,-0.525861006 21.7291622,1.50308902 19.1968422,6.83547908 C16.6633322,12.1702491 11.0215421,7.29838908 13.6883322,5.31108906 C16.3563122,3.32497904 15.4899922,0.847399009 12.9517221,0.717689008 C10.4134521,0.584409006 3.62331204,1.64945902 0.253232003,0.202419002" id="Fill-87" fill="#007647" mask="url(#mask-2)"></path>
                    </g>
                    <path d="M468.407805,16.1067692 C468.407805,19.2888292 470.986535,21.8675592 474.168595,21.8675592 C477.349465,21.8675592 479.929385,19.2888292 479.929385,16.1067692 C479.929385,12.9247091 477.349465,10.3459791 474.168595,10.3459791 C470.986535,10.3459791 468.407805,12.9247091 468.407805,16.1067692" id="Fill-90" fill="#007647"></path>
                    <path d="M481.745325,26.3333913 C477.952795,28.4646813 474.906395,26.2429513 474.836185,24.0188413 C473.218975,24.4067813 470.843735,23.0037713 470.296335,21.8661312 C469.748935,29.5487713 479.308205,30.6316713 481.745325,26.3333913" id="Fill-92" fill="#007647"></path>
                    <g id="Group-96" transform="translate(426.720005, 89.790541)">
                        <mask id="mask-4" fill="white">
                            <use xlink:href="#path-3"></use>
                        </mask>
                        <g id="Clip-95"></g>
                        <path d="M51.7574616,0.00329001967 C54.1053316,3.64350006 54.1505516,9.62682013 53.5853016,13.0147502 C50.4734516,31.6870404 31.7904514,37.8072104 26.4949513,38.7294604 C21.4124613,39.6160105 22.6774313,35.0606904 25.6119713,33.6386404 C29.2652713,31.8643504 26.0748813,28.4942703 21.6956813,32.0904504 C18.8789512,34.4014304 11.5997211,41.4367105 6.13524109,39.3922905 C1.73105104,37.7429504 10.9428411,29.3451203 5.34865108,29.8425403 C-1.05473899,30.4125504 -1.495039,21.5458603 6.16737109,22.2265403 C11.1951211,22.6739803 30.6397214,25.6906303 42.4433315,19.3729202 C48.6241916,16.0635302 53.2199716,12.0651302 51.7574616,0.00329001967" id="Fill-94" fill="#007647" mask="url(#mask-4)"></path>
                    </g>
                    <path d="M465.623443,95.9879001 C465.623443,97.9418801 467.207333,99.5269601 469.163693,99.5269601 C471.116483,99.5269601 472.700373,97.9418801 472.700373,95.9879001 C472.700373,94.03273 471.116483,92.44765 469.163693,92.44765 C467.207333,92.44765 465.623443,94.03273 465.623443,95.9879001" id="Fill-97" fill="#007647"></path>
                    <path d="M485.512865,81.5079799 C483.380385,79.0601499 481.183645,76.6218398 478.988095,74.1811498 C461.922305,55.2220696 444.275795,35.6180094 457.297965,12.3832591 C461.837815,4.28173905 468.976625,0.000119000001 477.945655,0.000119000001 C487.309765,0.000119000001 494.926955,7.61849908 494.926955,16.9826092 C494.926955,26.3467193 487.309765,33.9650994 477.945655,33.9650994 L477.945655,31.7505093 C486.087635,31.7505093 492.712365,25.1257793 492.712365,16.9826092 C492.712365,8.8406291 486.087635,2.21470902 477.945655,2.21470902 C469.826285,2.21470902 463.355065,6.10600907 459.229335,13.4661591 C446.983045,35.3169394 463.327695,53.4739596 480.632675,72.6995998 C482.837745,75.1474298 485.041625,77.5976399 487.181245,80.0526099 L485.512865,81.5079799 Z" id="Fill-99" fill="#007647"></path>
                    <path d="M14.9527072,115.12667 C4.33314705,93.19497 22.2009972,78.1248099 37.6031674,63.9138297 C59.5027377,43.7076295 64.0473477,24.0964293 53.2242976,12.8390291 C58.1913576,22.2316992 56.9109176,41.3026395 23.5421273,63.2152997 C-3.42684304,80.9248799 -5.45103306,109.16834 14.9527072,115.12667" id="Fill-101" fill="#007647"></path>
                    <path d="M44.0119125,33.9649804 L44.0119125,31.7503903 C49.8238725,31.7503903 53.7937126,28.8003803 54.6314726,23.8606903 C55.3490426,19.6302402 53.4402826,14.3299802 49.0051525,12.7817901 L49.7358125,10.6897701 C54.6981126,12.4236001 57.8087726,18.3712202 56.8151226,24.2295903 C56.0178226,28.9360403 52.2348126,33.9649804 44.0119125,33.9649804" id="Fill-103" fill="#007647"></path>
                    <path d="M65.7195357,110.802448 C58.9460556,110.802448 52.9960556,109.769528 48.4740555,107.237208 C43.9365855,104.290768 42.4812155,100.579158 42.0480555,97.9790081 C41.4970855,94.671998 42.3205655,91.129368 44.1971955,88.732708 C46.8961155,85.2828979 51.3669456,83.8751279 55.5902556,85.1496179 C59.4541857,86.313438 62.0424357,89.420528 62.3458857,93.259468 C62.6981257,97.7243481 59.7623957,100.055558 57.1420156,100.695778 C54.3467056,101.375268 50.8290656,100.437548 49.5117355,97.3221281 L51.5513956,96.4593781 C52.3879656,98.4335881 54.7310756,99.0024081 56.6172256,98.5430681 C58.4783856,98.0884881 60.3811957,96.5081681 60.1384357,93.433208 C59.9087657,90.526038 57.9214656,88.165078 54.9512256,87.270198 C51.6120856,86.264648 48.0730255,87.373728 45.9417355,90.097638 C44.4351955,92.021868 43.7806955,94.901668 44.2317055,97.6148681 C44.5922755,99.7770981 45.8191655,102.873478 49.6188355,105.342728 C65.9503957,114.487878 104.903856,102.044048 128.175496,94.608928 C133.030696,93.057168 137.224257,91.718418 140.702627,90.717628 L144.101267,89.735878 C165.311827,83.5871479 204.792457,72.1441078 260.978308,72.1441078 L260.978308,74.3586978 C205.106617,74.3586978 167.303887,85.3162179 144.717687,91.862408 L141.314287,92.846538 C137.868047,93.836618 133.688766,95.171798 128.850226,96.7176081 C110.302886,102.643808 84.7619159,110.802448 65.7195357,110.802448" id="Fill-105" fill="#007647"></path>
                    <path d="M86.637475,65.8277067 C78.1063649,65.8277067 71.0520448,64.3140267 66.9334547,60.3715567 C63.1361647,56.7372966 62.0425547,51.3406466 63.6811847,44.3327365 L65.8386547,44.8361065 C64.3690047,51.1157366 65.2281847,55.6746266 68.4649848,58.7721966 C80.6386849,70.4211068 122.614745,58.6436766 147.696376,51.6072066 C150.525006,50.8134766 153.138246,50.0804366 155.470646,49.4461665 C178.027096,43.3319465 219.398636,37.1594164 260.978427,37.1594164 L260.978427,39.3751964 C219.602126,39.3751964 178.465016,45.5072665 156.050176,51.5845966 C153.723726,52.2152966 151.116436,52.9471466 148.294946,53.7396866 C130.794805,58.6496266 105.215755,65.8277067 86.637475,65.8277067" id="Fill-107" fill="#007647"></path>
                    <path d="M64.4069657,16.8575402 C71.0935758,36.1153104 55.9127456,54.6935906 39.1563554,71.5439908 C22.3999652,88.392011 16.5903852,107.040501 24.8692153,117.824281 C33.1480454,128.608061 45.3443555,123.439891 45.3443555,123.439891 C34.2737854,118.722731 32.3793054,102.378081 35.6648954,91.988191 C39.8001454,78.9089009 50.7481456,69.7970708 57.8595856,59.2608107 C67.0011657,45.7126605 72.8321658,32.2537604 64.4069657,16.8575402" id="Fill-109" fill="#007647"></path>
                    <g id="Group-113" transform="translate(0.000000, 37.920540)">
                        <mask id="mask-6" fill="white">
                            <use xlink:href="#path-5"></use>
                        </mask>
                        <g id="Clip-112"></g>
                        <path d="M43.3233785,0.202419002 C37.5602084,11.0790191 20.5551082,21.9746592 9.3893381,22.5779892 C-4.25758205,23.3157893 -1.05410201,10.0603791 6.54880807,12.2273691 C13.2806381,14.1480292 14.8907082,11.0111891 12.2417681,8.6311891 C10.6626381,7.21389908 8.37783809,3.29046904 11.8252681,1.38170902 C15.2738882,-0.525861006 21.8474482,1.50308902 24.3797683,6.83547908 C26.9132783,12.1702491 32.5550684,7.29838908 29.8882783,5.31108906 C27.2202983,3.32497904 28.0866183,0.847399009 30.6248883,0.717689008 C33.1631584,0.584409006 39.9532984,1.64945902 43.3233785,0.202419002" id="Fill-111" fill="#007647" mask="url(#mask-6)"></path>
                    </g>
                    <path d="M53.5492866,16.1067692 C53.5492866,19.2888292 50.9705566,21.8675592 47.7884965,21.8675592 C44.6076265,21.8675592 42.0277065,19.2888292 42.0277065,16.1067692 C42.0277065,12.9247091 44.6076265,10.3459791 47.7884965,10.3459791 C50.9705566,10.3459791 53.5492866,12.9247091 53.5492866,16.1067692" id="Fill-114" fill="#007647"></path>
                    <path d="M40.2123614,26.3333913 C44.0037015,28.4646813 47.0512915,26.2429513 47.1203115,24.0188413 C48.7375215,24.4067813 51.1139516,23.0037713 51.6613516,21.8661312 C52.2087516,29.5487713 42.6482915,30.6316713 40.2123614,26.3333913" id="Fill-116" fill="#007647"></path>
                    <g id="Group-120" transform="translate(41.160000, 89.790541)">
                        <mask id="mask-8" fill="white">
                            <use xlink:href="#path-7"></use>
                        </mask>
                        <g id="Clip-119"></g>
                        <path d="M2.31903005,0.00329001967 C-0.0276499807,3.64350006 -0.0728699812,9.62682013 0.491190025,13.0147502 C3.60304006,31.6870404 22.2872303,37.8072104 27.5827303,38.7294604 C32.6628404,39.6160105 31.3990604,35.0606904 28.4645203,33.6386404 C24.8124103,31.8643504 28.0016103,28.4942703 32.3808104,32.0904504 C35.1975404,34.4014304 42.4767705,41.4367105 47.9412505,39.3922905 C52.3454406,37.7429504 43.1336505,29.3451203 48.7278406,29.8425403 C55.1312306,30.4125504 55.5715306,21.5458603 47.9091205,22.2265403 C42.8813705,22.6739803 23.4367703,25.6906303 11.6343501,19.3729202 C5.45230008,16.0635302 0.857710029,12.0651302 2.31903005,0.00329001967" id="Fill-118" fill="#007647" mask="url(#mask-8)"></path>
                    </g>
                    <path d="M56.3337676,95.9879001 C56.3337676,97.9418801 54.7498776,99.5269601 52.7947076,99.5269601 C50.8407276,99.5269601 49.2568375,97.9418801 49.2568375,95.9879001 C49.2568375,94.03273 50.8407276,92.44765 52.7947076,92.44765 C54.7498776,92.44765 56.3337676,94.03273 56.3337676,95.9879001" id="Fill-121" fill="#007647"></path>
                    <path d="M36.4454164,81.5079799 L34.7758464,80.0526099 C36.9166564,77.5964499 39.1205364,75.1474298 41.3256065,72.6984098 C58.6293966,53.4727696 74.9740468,35.3157494 62.7265667,13.4661591 C58.6020266,6.10600907 52.1308066,2.21470902 44.0114365,2.21470902 C35.8694564,2.21470902 29.2447263,8.8406291 29.2447263,16.9826092 C29.2447263,25.1257793 35.8694564,31.7505093 44.0114365,31.7505093 L44.0114365,33.9650994 C34.6473264,33.9650994 27.0289463,26.3467193 27.0289463,16.9826092 C27.0289463,7.61849908 34.6473264,0.000119000001 44.0114365,0.000119000001 C52.9804666,0.000119000001 60.1192767,4.28173905 64.6579367,12.3832591 C77.6812969,35.6180094 60.0359767,55.2208796 42.9713765,74.1799598 C40.7746364,76.6206498 38.5778964,79.0601499 36.4454164,81.5079799" id="Fill-123" fill="#007647"></path>
                    <path d="M435.320212,65.8277067 C416.741932,65.8288967 391.162881,58.6496266 373.661551,53.7384966 C370.838871,52.9471466 368.232771,52.2152966 365.907511,51.5845966 C343.492671,45.5072665 302.35556,39.3751964 260.97926,39.3751964 C219.602959,39.3751964 178.464659,45.5072665 156.049819,51.5845966 C153.723369,52.2152966 151.116079,52.9471466 148.294589,53.7396866 C122.758378,60.9034867 80.0195279,72.8974968 66.9342877,60.3715567 C63.1369977,56.7372966 62.0421977,51.3406466 63.6820177,44.3327365 L65.8382977,44.8361065 C64.3686477,51.1157366 65.2290177,55.6746266 68.4658178,58.7721966 C80.6395179,70.4211068 122.615578,58.6436766 147.696019,51.6072066 C150.524649,50.8134766 153.139079,50.0804366 155.470289,49.4461665 C178.026739,43.3319465 219.399469,37.1594164 260.97926,37.1594164 C302.55905,37.1594164 343.929401,43.3319465 366.485851,49.4461665 C368.818251,50.0792466 371.431491,50.8122866 374.258931,51.6060166 C399.340561,58.6448666 441.316622,70.4234868 453.492702,58.7721966 C456.728312,55.6746266 457.587492,51.1157366 456.119032,44.8361065 L458.275312,44.3327365 C459.915132,51.3406466 458.820332,56.7361066 455.024232,60.3715567 C450.906832,64.3140267 443.848942,65.8265167 435.320212,65.8277067" id="Fill-125" fill="#007647"></path>
                    <path d="M435.320212,65.8277067 C416.741932,65.8288967 391.162881,58.6496266 373.661551,53.7384966 C370.838871,52.9471466 368.232771,52.2152966 365.907511,51.5845966 C343.492671,45.5072665 302.35556,39.3751964 260.97926,39.3751964 C219.602959,39.3751964 178.464659,45.5072665 156.049819,51.5845966 C153.723369,52.2152966 151.116079,52.9471466 148.294589,53.7396866 C122.758378,60.9034867 80.0195279,72.8974968 66.9342877,60.3715567 C63.1369977,56.7372966 62.0421977,51.3406466 63.6820177,44.3327365 L65.8382977,44.8361065 C64.3686477,51.1157366 65.2290177,55.6746266 68.4658178,58.7721966 C80.6395179,70.4211068 122.615578,58.6436766 147.696019,51.6072066 C150.524649,50.8134766 153.139079,50.0804366 155.470289,49.4461665 C178.026739,43.3319465 219.399469,37.1594164 260.97926,37.1594164 C302.55905,37.1594164 343.929401,43.3319465 366.485851,49.4461665 C368.818251,50.0792466 371.431491,50.8122866 374.258931,51.6060166 C399.340561,58.6448666 441.316622,70.4234868 453.492702,58.7721966 C456.728312,55.6746266 457.587492,51.1157366 456.119032,44.8361065 L458.275312,44.3327365 C459.915132,51.3406466 458.820332,56.7361066 455.024232,60.3715567 C450.906832,64.3140267 443.848942,65.8265167 435.320212,65.8277067" id="Fill-127" fill="#007647"></path>
                </g>
            </g>
        </g>
    </g>
</svg>