<?xml version="1.0" encoding="UTF-8"?>
<svg width="27px" height="24px" viewBox="0 0 27 24" version="1.1" xmlns="http://www.w3.org/2000/svg" xmlns:xlink="http://www.w3.org/1999/xlink">
    <!-- Generator: Sketch 52.6 (67491) - http://www.bohemiancoding.com/sketch -->
    <title>icon/ratingPaws</title>
    <desc>Created with Sketch.</desc>
    <g id="landing-page" stroke="none" stroke-width="1" fill="none" fill-rule="evenodd">
        <g id="1-landing-page-C2" transform="translate(-360.000000, -4748.000000)" fill="#CC9A00">
            <g id="testmonials" transform="translate(0.000000, 4641.000000)">
                <g id="title">
                    <g id="rating" transform="translate(360.000000, 107.000000)">
                        <g id="icon/ratingPaws" transform="translate(0.000000, -0.000000)">
                            <path d="M21.378643,23.03325 C21.3784414,23.0450395 21.3782207,23.0568022 21.378,23.0685 C21.3777961,23.0567438 21.3775923,23.0449938 21.3773879,23.03325 L21.362625,23.03325 C21.3675149,22.9907687 21.3716576,22.9480383 21.3751039,22.9051096 C21.3737237,22.8303214 21.3722377,22.7557849 21.3705,22.6815 C21.3745095,22.7406405 21.3771794,22.799781 21.3785095,22.8593691 C21.3817623,22.8120249 21.384195,22.7644627 21.385875,22.71675 C21.386625,22.8225 21.387375,22.9275 21.387375,23.03325 L21.378643,23.03325 Z M20.9796097,5.13620938 C20.776516,7.82458979 19.1099113,9.88722648 17.2573356,9.74286123 C15.4047599,9.59849597 14.0672906,7.30217104 14.2703843,4.61379062 C14.473478,1.92541021 16.1400826,-0.137226482 17.9926583,0.00713877351 C19.8457097,0.151504029 21.1827033,2.44782896 20.9796097,5.13620938 Z M13.4950391,4.74647052 C13.5951605,7.43811802 12.1677152,9.67737968 10.3064105,9.74827597 C8.44510571,9.81917225 6.8550823,7.69469506 6.75496089,5.00304757 C6.65483947,2.31188236 8.08228477,0.0726206989 9.94358953,0.00172441119 C11.8048943,-0.0691718765 13.3949177,2.05482303 13.4950391,4.74647052 Z M26.6651833,11.5033999 C25.8566397,13.9257491 23.8406191,15.4397778 22.1614109,14.8857118 C20.4822026,14.3311632 19.7765468,11.9184667 20.5846052,9.4966001 C21.3931488,7.07425085 23.4096547,5.56022224 25.0883776,6.11428818 C26.7675859,6.66835412 27.473727,9.08153328 26.6651833,11.5033999 Z M6.13914027,8.84706515 C7.20829855,11.0124146 6.83774075,13.3399783 5.31106196,14.0458672 C3.78438317,14.7517562 1.68036857,13.5681066 0.610727159,11.4027572 C-0.458431122,9.23740772 -0.0873902006,6.90984406 1.43880547,6.2039551 C2.96548426,5.49853361 5.06998199,6.6817157 6.13914027,8.84706515 Z M7.04167616,13.3268335 C7.14913075,13.0713415 7.67198337,11.9154973 8.91073473,11.4712059 C9.9006194,11.1156747 10.8565466,11.3907823 11.2765963,11.6595148 C11.4891796,11.7948619 11.9092294,12.0729118 11.9092294,12.0729118 C12.3097419,12.371558 12.3516074,12.4789529 12.6153595,12.638329 C12.7270007,12.7055121 13.0986726,12.9301097 13.547563,12.9281482 C13.8117803,12.926677 14.047157,12.8477246 14.6997924,12.4353084 C15.6031552,11.8640066 15.6119935,11.7438615 15.9645934,11.5580045 C16.5725724,11.2382717 17.4219753,11.121069 18.2155577,11.4324653 C19.3687175,11.8846029 19.8380754,13.0198507 19.9469255,13.283189 C20.132994,13.7323843 20.2920827,14.2727917 20.2399835,15.0377967 C20.0995017,17.0935026 19.5245499,19.1237083 18.1495033,20.7576806 C17.5564098,21.4628584 16.7660837,21.9684482 15.9780834,22.4652111 C15.757127,22.6044813 13.8294568,24.0261156 13.7685194,23.9996347 C11.9213238,23.1909851 9.81828407,21.9022459 8.69722107,20.2756294 C7.70314985,18.8333987 6.99748488,17.1229259 6.78862293,15.414905 C6.74071028,15.0235755 6.67139975,14.2056085 7.04167616,13.3268335 Z" id="Combined-Shape"></path>
                        </g>
                    </g>
                </g>
            </g>
        </g>
    </g>
</svg>