<svg width="27" height="24" viewBox="0 0 27 24" fill="none" xmlns="http://www.w3.org/2000/svg">
<path fill-rule="evenodd" clip-rule="evenodd" d="M20.9796 5.13621C20.7765 7.82459 19.1099 9.88723 17.2573 9.74286C15.4048 9.5985 14.0673 7.30217 14.2704 4.61379C14.4735 1.92541 16.1401 -0.137226 17.9927 0.00713877C19.8457 0.151504 21.1827 2.44783 20.9796 5.13621ZM13.495 4.74647C13.5952 7.43812 12.1677 9.67738 10.3064 9.74828C8.44511 9.81917 6.85508 7.69469 6.75496 5.00305C6.65484 2.31188 8.08228 0.0726207 9.94359 0.00172441C11.8049 -0.0691719 13.3949 2.05482 13.495 4.74647ZM22.1614 14.8857C23.8406 15.4398 25.8566 13.9257 26.6652 11.5034C27.4737 9.08153 26.7676 6.66835 25.0884 6.11429C23.4097 5.56022 21.3931 7.07425 20.5846 9.4966C19.7765 11.9185 20.4822 14.3312 22.1614 14.8857ZM6.13914 8.84706C7.2083 11.0124 6.83774 13.34 5.31106 14.0459C3.78438 14.7518 1.68037 13.5681 0.610727 11.4028C-0.458431 9.23741 -0.0873902 6.90984 1.43881 6.20396C2.96548 5.49853 5.06998 6.68172 6.13914 8.84706ZM8.91073 11.4712C7.67198 11.9155 7.14913 13.0713 7.04168 13.3268C6.6714 14.2056 6.74071 15.0236 6.78862 15.4149C6.99748 17.1229 7.70315 18.8334 8.69722 20.2756C9.81828 21.9022 11.9213 23.191 13.7685 23.9996C13.8084 24.017 14.6499 23.4126 15.2875 22.9546C15.6229 22.7136 15.9019 22.5132 15.9781 22.4652C16.7661 21.9684 17.5564 21.4629 18.1495 20.7577C19.5245 19.1237 20.0995 17.0935 20.24 15.0378C20.2921 14.2728 20.133 13.7324 19.9469 13.2832C19.8381 13.0199 19.3687 11.8846 18.2156 11.4325C17.422 11.1211 16.5726 11.2383 15.9646 11.558C15.8068 11.6412 15.7179 11.7112 15.5868 11.8144C15.4249 11.9417 15.1989 12.1197 14.6998 12.4353C14.0472 12.8477 13.8118 12.9267 13.5476 12.9281C13.1002 12.9301 12.7295 12.707 12.6165 12.639L12.6165 12.639L12.6154 12.6383C12.4759 12.5541 12.3985 12.4843 12.2973 12.3932C12.2071 12.3119 12.098 12.2136 11.9092 12.0729C11.9092 12.0729 11.4892 11.7949 11.2766 11.6595C10.8565 11.3908 9.90062 11.1157 8.91073 11.4712ZM21.3774 23.0333H21.3626C21.3675 22.9908 21.3717 22.948 21.3751 22.9051C21.3737 22.8303 21.3722 22.7558 21.3705 22.6815C21.3745 22.7406 21.3772 22.7998 21.3785 22.8594C21.3818 22.812 21.3842 22.7645 21.3859 22.7167L21.3859 22.719C21.3866 22.824 21.3874 22.9282 21.3874 23.0333H21.3786C21.3784 23.045 21.3782 23.0568 21.378 23.0685C21.3778 23.0567 21.3776 23.045 21.3774 23.0333Z" fill="#CC9A00"/>
</svg>
