<?xml version="1.0" encoding="UTF-8"?>
<svg width="621px" height="38px" viewBox="0 0 621 38" version="1.1" xmlns="http://www.w3.org/2000/svg" xmlns:xlink="http://www.w3.org/1999/xlink">
    <!-- Generator: Sketch 52.6 (67491) - http://www.bohemiancoding.com/sketch -->
    <title>upcycled cat litter soft wood</title>
    <desc>Created with Sketch.</desc>
    <g id="landing-page" stroke="none" stroke-width="1" fill="none" fill-rule="evenodd">
        <g id="1-landing-page-C2" transform="translate(-410.000000, -22.000000)">
            <g id="top-bar">
                <g id="upcycled-cat-litter-soft-wood" transform="translate(720.500000, 41.000000) rotate(-360.000000) translate(-720.500000, -41.000000) translate(410.000000, 23.000000)">
                    <path d="M211.243074,29.6672511 C211.243074,32.7231214 208.743353,35.2228429 205.687482,35.2228429 L194.482952,35.2228429 C191.427082,35.2228429 188.927361,32.6769394 188.927361,29.6672511 L188.927361,6.28738718 C188.927361,3.23053434 191.427082,0.730812816 194.482952,0.730812816 L205.687482,0.730812816 C208.743353,0.730812816 211.243074,3.23053434 211.243074,6.28738718 L211.243074,11.0559204 L205.270862,11.0559204 L205.270862,6.70302484 L194.945755,6.70302484 L194.945755,29.2044489 L205.270862,29.2044489 L205.270862,24.1578413 L211.243074,24.1578413 L211.243074,29.6672511 Z" id="Fill-1" fill="#DDAD26"></path>
                    <path d="M234.298092,22.4445888 L230.455163,9.62074225 L226.612235,22.4445888 L234.298092,22.4445888 Z M224.806225,28.4168008 L222.769306,35.2232359 L216.519019,35.2232359 L226.844127,0.731205854 L234.020018,0.731205854 L244.391307,35.2232359 L238.094839,35.2232359 L236.103119,28.4168008 L224.806225,28.4168008 Z" id="Fill-3" fill="#DDAD26"></path>
                    <polygon id="Fill-5" fill="#DDAD26" points="259.43631 35.2231377 253.417916 35.2231377 253.417916 6.70331962 246.472935 6.70331962 246.472935 0.731107595 266.381291 0.731107595 266.381291 6.70331962 259.43631 6.70331962"></polygon>
                    <polygon id="Fill-7" fill="#DDAD26" points="289.295601 35.2231377 289.295601 0.731107595 295.313995 0.731107595 295.313995 29.2047437 308.648791 29.2047437 308.648791 35.2231377"></polygon>
                    <polygon id="Fill-9" fill="#DDAD26" points="315.268533 35.2226464 321.286927 35.2226464 321.286927 0.730616297 315.268533 0.730616297"></polygon>
                    <polygon id="Fill-11" fill="#DDAD26" points="340.915931 35.2231377 334.897537 35.2231377 334.897537 6.70331962 327.953539 6.70331962 327.953539 0.731107595 347.860912 0.731107595 347.860912 6.70331962 340.915931 6.70331962"></polygon>
                    <polygon id="Fill-12" fill="#DDAD26" points="367.490113 35.2231377 361.471719 35.2231377 361.471719 6.70331962 354.526738 6.70331962 354.526738 0.731107595 374.435094 0.731107595 374.435094 6.70331962 367.490113 6.70331962"></polygon>
                    <polygon id="Fill-13" fill="#DDAD26" points="381.100527 35.2231377 381.100527 0.731107595 403.276712 0.731107595 403.276712 6.70331962 387.118921 6.70331962 387.118921 14.9443434 397.581592 14.9443434 397.581592 20.9627373 387.118921 20.9627373 387.118921 29.2047437 403.276712 29.2047437 403.276712 35.2231377"></polygon>
                    <path d="M415.960932,15.7780752 L425.637527,15.7780752 L425.637527,6.70381092 L415.960932,6.70381092 L415.960932,15.7780752 Z M409.943521,0.730616297 L426.054147,0.730616297 C429.110017,0.730616297 431.609739,3.23033782 431.609739,6.28719066 L431.609739,16.2408774 C431.609739,19.295765 429.156199,21.7964691 426.101312,21.7964691 L431.378829,35.2226464 L424.942832,35.2226464 L419.665315,21.7964691 L415.961915,21.7964691 L415.961915,35.2226464 L409.943521,35.2226464 L409.943521,0.730616297 Z" id="Fill-14" fill="#DDAD26"></path>
                    <path d="M211.241699,24.1583326 L205.269487,24.1583326 L205.269487,29.2049402 L194.945362,29.2049402 L194.945362,6.70449873 L205.269487,6.70449873 L205.269487,11.0564117 L211.241699,11.0564117 L211.241699,6.28787848 C211.241699,3.23200823 208.741977,0.732286709 205.686107,0.732286709 L194.482559,0.732286709 C191.426689,0.732286709 188.926968,3.23200823 188.926968,6.28787848 L188.926968,29.6677424 C188.926968,32.6774307 191.426689,35.2233342 194.482559,35.2233342 L205.686107,35.2233342 C208.741977,35.2233342 211.241699,32.7236127 211.241699,29.6677424 L211.241699,24.1583326 Z" id="Stroke-15" stroke="#E6AB00" stroke-width="1.29899051" stroke-linejoin="round"></path>
                    <path d="M236.10253,28.4178816 L238.093267,35.2233342 L244.389735,35.2233342 L234.019428,0.732286709 L226.843537,0.732286709 L216.519412,35.2233342 L222.768716,35.2233342 L224.806618,28.4178816 L236.10253,28.4178816 Z M226.611645,22.4456696 L230.454574,9.6218231 L234.29652,22.4456696 L226.611645,22.4456696 Z" id="Stroke-16" stroke="#E6AB00" stroke-width="1.29899051" stroke-linejoin="round"></path>
                    <polygon id="Stroke-17" stroke="#E6AB00" stroke-width="1.29899051" stroke-linejoin="round" points="259.389244 6.70479351 266.333242 6.70479351 266.333242 0.732581487 246.425869 0.732581487 246.425869 6.70479351 253.37085 6.70479351 253.37085 35.223629 259.389244 35.223629"></polygon>
                    <polygon id="Stroke-18" stroke="#E6AB00" stroke-width="1.29899051" stroke-linejoin="round" points="308.601528 35.2231377 308.601528 29.2047437 295.268698 29.2047437 295.268698 0.73209019 289.249321 0.73209019 289.249321 35.2231377"></polygon>
                    <polygon id="Stroke-19" stroke="#E6AB00" stroke-width="1.29899051" stroke-linejoin="round" points="315.268533 35.223629 321.286927 35.223629 321.286927 0.732581487 315.268533 0.732581487"></polygon>
                    <polygon id="Stroke-20" stroke="#E6AB00" stroke-width="1.29899051" stroke-linejoin="round" points="340.915931 6.70479351 347.860913 6.70479351 347.860913 0.732581487 327.952556 0.732581487 327.952556 6.70479351 334.897538 6.70479351 334.897538 35.223629 340.915931 35.223629"></polygon>
                    <polygon id="Stroke-21" stroke="#E6AB00" stroke-width="1.29899051" stroke-linejoin="round" points="367.489131 6.70479351 374.433129 6.70479351 374.433129 0.732581487 354.526738 0.732581487 354.526738 6.70479351 361.470737 6.70479351 361.470737 35.223629 367.489131 35.223629"></polygon>
                    <polygon id="Stroke-22" stroke="#E6AB00" stroke-width="1.29899051" stroke-linejoin="round" points="403.276123 35.2231377 403.276123 29.2047437 387.119314 29.2047437 387.119314 20.9637199 397.581985 20.9637199 397.581985 14.9453259 387.119314 14.9453259 387.119314 6.70430222 403.276123 6.70430222 403.276123 0.73209019 381.10092 0.73209019 381.10092 35.2231377"></polygon>
                    <path d="M409.942243,35.2231377 L415.960637,35.2231377 L415.960637,21.7969604 L419.66502,21.7969604 L424.94352,35.2231377 L431.377552,35.2231377 L426.100034,21.7969604 C429.155905,21.7969604 431.609444,19.2972389 431.609444,16.2413687 L431.609444,6.28768196 C431.609444,3.2327943 429.109723,0.73209019 426.05287,0.73209019 L409.942243,0.73209019 L409.942243,35.2231377 Z M415.960637,15.7785665 L425.638215,15.7785665 L425.638215,6.70430222 L415.960637,6.70430222 L415.960637,15.7785665 Z" id="Stroke-23" stroke="#E6AB00" stroke-width="1.29899051" stroke-linejoin="round"></path>
                    <path d="M462.723116,24.9432294 L469.213156,24.9432294 L469.213156,19.4033592 L462.443077,19.4033592 C460.596781,19.4033592 459.086532,17.8931108 459.086532,16.0468149 L459.086532,11.0945364 C459.086532,9.24824051 460.596781,7.73700949 462.443077,7.73700949 L469.494178,7.73700949 C471.340474,7.73700949 472.850722,9.24824051 472.850722,11.0945364 L472.850722,14.1160158 L469.213156,14.1160158 L469.213156,11.3470633 L462.723116,11.3470633 L462.723116,15.794288 L469.494178,15.794288 C471.340474,15.794288 472.850722,17.305519 472.850722,19.1233196 L472.850722,25.2222864 C472.850722,27.0695649 471.340474,28.5798133 469.494178,28.5798133 L462.443077,28.5798133 C460.596781,28.5798133 459.086532,27.0420522 459.086532,25.2222864 L459.086532,21.8932547 L462.723116,21.8932547 L462.723116,24.9432294 Z" id="Fill-24" fill="#DDAD26"></path>
                    <path d="M479.956358,24.9437207 L486.446397,24.9437207 L486.446397,11.3475546 L479.956358,11.3475546 L479.956358,24.9437207 Z M486.726437,7.73750079 C488.572733,7.73750079 490.082981,9.24774921 490.082981,11.0950277 L490.082981,25.2227777 C490.082981,27.0700562 488.572733,28.5803046 486.726437,28.5803046 L479.675335,28.5803046 C477.830022,28.5803046 476.318791,27.0700562 476.318791,25.2227777 L476.318791,11.0950277 C476.318791,9.24774921 477.830022,7.73750079 479.675335,7.73750079 L486.726437,7.73750079 Z" id="Fill-25" fill="#DDAD26"></path>
                    <polygon id="Fill-26" fill="#DDAD26" points="493.55105 7.73730427 506.95168 7.73730427 506.95168 11.3463755 497.187634 11.3463755 497.187634 16.3261666 503.510632 16.3261666 503.510632 19.9627505 497.187634 19.9627505 497.187634 28.5801081 493.55105 28.5801081"></polygon>
                    <polygon id="Fill-27" fill="#DDAD26" points="518.253192 28.5800098 514.616608 28.5800098 514.616608 11.3462772 510.419945 11.3462772 510.419945 7.73720601 522.449855 7.73720601 522.449855 11.3462772 518.253192 11.3462772"></polygon>
                    <polygon id="Fill-28" fill="#DDAD26" points="540.409528 18.3965924 542.955432 7.73740253 544.941256 7.73740253 547.54415 18.4250877 549.081911 7.73740253 552.719478 7.73740253 549.697998 28.5802063 546.508495 28.5802063 543.962592 17.7529927 541.388193 28.5802063 538.19869 28.5802063 535.178193 7.73740253 538.84229 7.73740253"></polygon>
                    <path d="M559.795144,24.9437207 L566.285184,24.9437207 L566.285184,11.3475546 L559.795144,11.3475546 L559.795144,24.9437207 Z M566.566206,7.73750079 C568.412502,7.73750079 569.92275,9.24774921 569.92275,11.0950277 L569.92275,25.2227777 C569.92275,27.0700562 568.412502,28.5803046 566.566206,28.5803046 L559.515104,28.5803046 C557.668809,28.5803046 556.15856,27.0700562 556.15856,25.2227777 L556.15856,11.0950277 C556.15856,9.24774921 557.668809,7.73750079 559.515104,7.73750079 L566.566206,7.73750079 Z" id="Fill-29" fill="#DDAD26"></path>
                    <path d="M577.028877,24.9437207 L583.518916,24.9437207 L583.518916,11.3475546 L577.028877,11.3475546 L577.028877,24.9437207 Z M583.798956,7.73750079 C585.645252,7.73750079 587.1555,9.24774921 587.1555,11.0950277 L587.1555,25.2227777 C587.1555,27.0700562 585.645252,28.5803046 583.798956,28.5803046 L576.747854,28.5803046 C574.902541,28.5803046 573.39131,27.0700562 573.39131,25.2227777 L573.39131,11.0950277 C573.39131,9.24774921 574.902541,7.73750079 576.747854,7.73750079 L583.798956,7.73750079 Z" id="Fill-30" fill="#DDAD26"></path>
                    <path d="M594.261627,24.9437207 L600.751666,24.9437207 L600.751666,11.3475546 L594.261627,11.3475546 L594.261627,24.9437207 Z M604.38825,11.0950277 L604.38825,25.2227777 C604.38825,27.0700562 602.878002,28.5803046 601.031706,28.5803046 L590.62406,28.5803046 L590.62406,7.73750079 L601.031706,7.73750079 C602.878002,7.73750079 604.38825,9.24774921 604.38825,11.0950277 Z" id="Fill-31" fill="#DDAD26"></path>
                    <path d="M462.723116,21.893746 L459.086532,21.893746 L459.086532,25.2237603 C459.086532,27.0415609 460.596781,28.5812872 462.443077,28.5812872 L469.493195,28.5812872 C471.339491,28.5812872 472.84974,27.0700562 472.84974,25.2237603 L472.84974,19.1247935 C472.84974,17.3069929 471.339491,15.7947793 469.493195,15.7947793 L462.723116,15.7947793 L462.723116,11.3485372 L469.212173,11.3485372 L469.212173,14.1165071 L472.84974,14.1165071 L472.84974,11.0950277 C472.84974,9.2487318 471.339491,7.73848339 469.493195,7.73848339 L462.443077,7.73848339 C460.596781,7.73848339 459.086532,9.2487318 459.086532,11.0950277 L459.086532,16.0473062 C459.086532,17.8936021 460.596781,19.4048331 462.443077,19.4048331 L469.212173,19.4048331 L469.212173,24.9437207 L462.723116,24.9437207 L462.723116,21.893746 Z" id="Stroke-32" stroke="#E6AB00" stroke-width="0.5" stroke-linejoin="round"></path>
                    <path d="M479.675728,7.73877816 C477.829433,7.73877816 476.318202,9.24902658 476.318202,11.0963051 L476.318202,25.2230725 C476.318202,27.0693684 477.829433,28.5805994 479.675728,28.5805994 L486.725847,28.5805994 C488.572143,28.5805994 490.082391,27.0693684 490.082391,25.2230725 L490.082391,11.0963051 C490.082391,9.24902658 488.572143,7.73877816 486.725847,7.73877816 L479.675728,7.73877816 Z M479.955768,24.9440155 L486.444825,24.9440155 L486.444825,11.3478494 L479.955768,11.3478494 L479.955768,24.9440155 Z" id="Stroke-33" stroke="#E6AB00" stroke-width="0.5" stroke-linejoin="round"></path>
                    <polygon id="Stroke-34" stroke="#E6AB00" stroke-width="0.5" stroke-linejoin="round" points="493.55105 28.5800098 497.187634 28.5800098 497.187634 19.9636348 503.510632 19.9636348 503.510632 16.3270509 497.187634 16.3270509 497.187634 11.3472598 506.95168 11.3472598 506.95168 7.73818861 493.55105 7.73818861"></polygon>
                    <polygon id="Stroke-35" stroke="#E6AB00" stroke-width="0.5" stroke-linejoin="round" points="518.253192 11.3476528 522.449855 11.3476528 522.449855 7.73858165 510.418962 7.73858165 510.418962 11.3476528 514.616608 11.3476528 514.616608 28.5804028 518.253192 28.5804028"></polygon>
                    <polygon id="Stroke-36" stroke="#E6AB00" stroke-width="0.5" stroke-linejoin="round" points="538.842584 7.73877816 535.177505 7.73877816 538.198985 28.5805994 541.388488 28.5805994 543.961904 17.7543684 546.507807 28.5805994 549.697311 28.5805994 552.71879 7.73877816 549.081224 7.73877816 547.54248 18.4254807 544.941551 7.73877816 542.954744 7.73877816 540.408841 18.3969854"></polygon>
                    <path d="M559.544189,7.73877816 C557.697893,7.73877816 556.186662,9.24902658 556.186662,11.0963051 L556.186662,25.2230725 C556.186662,27.0693684 557.697893,28.5805994 559.544189,28.5805994 L566.594308,28.5805994 C568.440604,28.5805994 569.950852,27.0693684 569.950852,25.2230725 L569.950852,11.0963051 C569.950852,9.24902658 568.440604,7.73877816 566.594308,7.73877816 L559.544189,7.73877816 Z M559.824229,24.9440155 L566.313286,24.9440155 L566.313286,11.3478494 L559.824229,11.3478494 L559.824229,24.9440155 Z" id="Stroke-37" stroke="#E6AB00" stroke-width="0.5" stroke-linejoin="round"></path>
                    <path d="M576.776055,7.73877816 C574.929759,7.73877816 573.418528,9.24902658 573.418528,11.0963051 L573.418528,25.2230725 C573.418528,27.0693684 574.929759,28.5805994 576.776055,28.5805994 L583.827156,28.5805994 C585.673452,28.5805994 587.1837,27.0693684 587.1837,25.2230725 L587.1837,11.0963051 C587.1837,9.24902658 585.673452,7.73877816 583.827156,7.73877816 L576.776055,7.73877816 Z M577.056094,24.9440155 L583.546134,24.9440155 L583.546134,11.3478494 L577.056094,11.3478494 L577.056094,24.9440155 Z" id="Stroke-38" stroke="#E6AB00" stroke-width="0.5" stroke-linejoin="round"></path>
                    <path d="M601.058825,7.73877816 L590.652162,7.73877816 L590.652162,28.5805994 L601.058825,28.5805994 C602.905121,28.5805994 604.416352,27.0693684 604.416352,25.2230725 L604.416352,11.0963051 C604.416352,9.24902658 602.905121,7.73877816 601.058825,7.73877816 Z M594.289729,24.9440155 L600.778786,24.9440155 L600.778786,11.3478494 L594.289729,11.3478494 L594.289729,24.9440155 Z" id="Stroke-39" stroke="#DDAD26" stroke-width="0.5" stroke-linejoin="round"></path>
                    <path d="M35.891147,25.2224829 C35.891147,27.0697614 34.379916,28.5800098 32.5336201,28.5800098 L25.4835014,28.5800098 C23.6372055,28.5800098 22.1259745,27.0422487 22.1259745,25.2224829 L22.1259745,7.73720601 L25.763541,7.73720601 L25.763541,24.9434259 L32.2535805,24.9434259 L32.2535805,7.73720601 L35.891147,7.73720601 L35.891147,25.2224829 Z" id="Fill-40" fill="#DDAD26"></path>
                    <path d="M42.9954066,16.8304343 L48.8428291,16.8304343 L48.8428291,11.346572 L42.9954066,11.346572 L42.9954066,16.8304343 Z M39.3588228,7.73750079 L49.0943734,7.73750079 C50.9406693,7.73750079 52.4519003,9.24774921 52.4519003,11.0950277 L52.4519003,17.1094913 C52.4519003,18.9557872 50.9406693,20.4670182 49.0943734,20.4670182 L42.9954066,20.4670182 L42.9954066,28.5803046 L39.3588228,28.5803046 L39.3588228,7.73750079 Z" id="Fill-41" fill="#DDAD26"></path>
                    <path d="M69.4050038,25.2224829 C69.4050038,27.0697614 67.8937728,28.5800098 66.0474769,28.5800098 L59.2773978,28.5800098 C57.4301193,28.5800098 55.9198709,27.0422487 55.9198709,25.2224829 L55.9198709,11.0947329 C55.9198709,9.24843703 57.4301193,7.73720601 59.2773978,7.73720601 L66.0474769,7.73720601 C67.8937728,7.73720601 69.4050038,9.24843703 69.4050038,11.0947329 L69.4050038,13.9766839 L65.7959326,13.9766839 L65.7959326,11.3462772 L59.5574373,11.3462772 L59.5574373,24.9434259 L65.7959326,24.9434259 L65.7959326,21.8934513 L69.4050038,21.8934513 L69.4050038,25.2224829 Z" id="Fill-42" fill="#DDAD26"></path>
                    <polygon id="Fill-43" fill="#DDAD26" points="79.1114696 19.0957087 72.3128953 7.73691123 76.5370709 7.73691123 80.9302528 15.0955647 85.3509475 7.73691123 89.5751231 7.73691123 82.7490361 19.0957087 82.7490361 28.579715 79.1114696 28.579715"></polygon>
                    <path d="M105.968246,25.2224829 C105.968246,27.0697614 104.457015,28.5800098 102.610719,28.5800098 L95.8406397,28.5800098 C93.9933612,28.5800098 92.4831128,27.0422487 92.4831128,25.2224829 L92.4831128,11.0947329 C92.4831128,9.24843703 93.9933612,7.73720601 95.8406397,7.73720601 L102.610719,7.73720601 C104.457015,7.73720601 105.968246,9.24843703 105.968246,11.0947329 L105.968246,13.9766839 L102.359175,13.9766839 L102.359175,11.3462772 L96.1206793,11.3462772 L96.1206793,24.9434259 L102.359175,24.9434259 L102.359175,21.8934513 L105.968246,21.8934513 L105.968246,25.2224829 Z" id="Fill-44" fill="#DDAD26"></path>
                    <polygon id="Fill-45" fill="#DDAD26" points="109.436118 28.5800098 109.436118 7.73720601 113.073684 7.73720601 113.073684 24.9434259 121.130963 24.9434259 121.130963 28.5800098"></polygon>
                    <polygon id="Fill-46" fill="#DDAD26" points="124.570831 28.5800098 124.570831 7.73720601 137.972444 7.73720601 137.972444 11.3462772 128.208398 11.3462772 128.208398 16.3260684 134.530414 16.3260684 134.530414 19.9626522 128.208398 19.9626522 128.208398 24.9434259 137.972444 24.9434259 137.972444 28.5800098"></polygon>
                    <path d="M145.077195,24.9437207 L151.567234,24.9437207 L151.567234,11.3475546 L145.077195,11.3475546 L145.077195,24.9437207 Z M155.204801,11.0950277 L155.204801,25.2227777 C155.204801,27.0700562 153.69357,28.5803046 151.847274,28.5803046 L141.439628,28.5803046 L141.439628,7.73750079 L151.847274,7.73750079 C153.69357,7.73750079 155.204801,9.24774921 155.204801,11.0950277 Z" id="Fill-47" fill="#DDAD26"></path>
                    <path d="M35.8897714,7.73877816 L32.2531875,7.73877816 L32.2531875,24.9440155 L25.7631479,24.9440155 L25.7631479,7.73877816 L22.1255815,7.73877816 L22.1255815,25.2230725 C22.1255815,27.0418557 23.6368125,28.5805994 25.4831084,28.5805994 L32.5322445,28.5805994 C34.3795229,28.5805994 35.8897714,27.0693684 35.8897714,25.2230725 L35.8897714,7.73877816 Z" id="Stroke-48" stroke="#DDAD26" stroke-width="0.5" stroke-linejoin="round"></path>
                    <path d="M39.358528,28.5800098 L42.9951119,28.5800098 L42.9951119,20.4667234 L49.0940786,20.4667234 C50.9403745,20.4667234 52.4506229,18.956475 52.4506229,17.1101791 L52.4506229,11.0966981 C52.4506229,9.24941962 50.9403745,7.73818861 49.0940786,7.73818861 L39.358528,7.73818861 L39.358528,28.5800098 Z M42.9951119,16.8301396 L48.8425343,16.8301396 L48.8425343,11.3472598 L42.9951119,11.3472598 L42.9951119,16.8301396 Z" id="Stroke-49" stroke="#DDAD26" stroke-width="0.5" stroke-linejoin="round"></path>
                    <path d="M69.4040212,21.893746 L65.79495,21.893746 L65.79495,24.9437207 L59.5564547,24.9437207 L59.5564547,11.3485372 L65.79495,11.3485372 L65.79495,13.9769786 L69.4040212,13.9769786 L69.4040212,11.0950277 C69.4040212,9.2487318 67.8937728,7.73848339 66.0464943,7.73848339 L59.2773978,7.73848339 C57.4301193,7.73848339 55.9198709,9.2487318 55.9198709,11.0950277 L55.9198709,25.2237603 C55.9198709,27.0415609 57.4301193,28.5812872 59.2773978,28.5812872 L66.0464943,28.5812872 C67.8937728,28.5812872 69.4040212,27.0700562 69.4040212,25.2237603 L69.4040212,21.893746 Z" id="Stroke-50" stroke="#DDAD26" stroke-width="0.5" stroke-linejoin="round"></path>
                    <polygon id="Stroke-51" stroke="#E6AB00" stroke-width="0.5" stroke-linejoin="round" points="79.1114696 28.5800098 82.7480535 28.5800098 82.7480535 19.0969861 89.5741405 7.73818861 85.3499649 7.73818861 80.9302528 15.0958595 76.5380535 7.73818861 72.3138778 7.73818861 79.1114696 19.0969861"></polygon>
                    <path d="M105.967754,21.893746 L102.358683,21.893746 L102.358683,24.9437207 L96.120188,24.9437207 L96.120188,11.3485372 L102.358683,11.3485372 L102.358683,13.9769786 L105.967754,13.9769786 L105.967754,11.0950277 C105.967754,9.2487318 104.457506,7.73848339 102.610228,7.73848339 L95.841131,7.73848339 C93.9938525,7.73848339 92.4836041,9.2487318 92.4836041,11.0950277 L92.4836041,25.2237603 C92.4836041,27.0415609 93.9938525,28.5812872 95.841131,28.5812872 L102.610228,28.5812872 C104.457506,28.5812872 105.967754,27.0700562 105.967754,25.2237603 L105.967754,21.893746 Z" id="Stroke-52" stroke="#E6AB00" stroke-width="0.5" stroke-linejoin="round"></path>
                    <polygon id="Stroke-53" stroke="#E6AB00" stroke-width="0.5" stroke-linejoin="round" points="121.130373 28.5800098 121.130373 24.9434259 113.073095 24.9434259 113.073095 7.73818861 109.436511 7.73818861 109.436511 28.5800098"></polygon>
                    <polygon id="Stroke-54" stroke="#E6AB00" stroke-width="0.5" stroke-linejoin="round" points="137.999465 28.5800098 137.999465 24.9434259 128.236402 24.9434259 128.236402 19.9636348 134.558418 19.9636348 134.558418 16.3270509 128.236402 16.3270509 128.236402 11.3472598 137.999465 11.3472598 137.999465 7.73818861 124.598835 7.73818861 124.598835 28.5800098"></polygon>
                    <path d="M151.874786,7.73877816 L141.468123,7.73877816 L141.468123,28.5805994 L151.874786,28.5805994 C153.721082,28.5805994 155.232313,27.0693684 155.232313,25.2230725 L155.232313,11.0963051 C155.232313,9.24902658 153.721082,7.73877816 151.874786,7.73877816 Z M145.104707,24.9440155 L151.594747,24.9440155 L151.594747,11.3478494 L145.104707,11.3478494 L145.104707,24.9440155 Z" id="Stroke-55" stroke="#E6AB00" stroke-width="0.5" stroke-linejoin="round"></path>
                    <path d="M443.177731,0.894611392 L620.323876,0.894611392 L443.177731,0.894611392 Z" id="Fill-56" fill="#DDAD26"></path>
                    <path d="M443.177731,0.894611392 L620.323876,0.894611392" id="Stroke-57" stroke="#E6AB00" stroke-width="3.6" stroke-linejoin="round"></path>
                    <path d="M443.177731,35.1789209 L620.323876,35.1789209 L443.177731,35.1789209 Z" id="Fill-58" fill="#DDAD26"></path>
                    <path d="M443.177731,35.1789209 L620.323876,35.1789209" id="Stroke-59" stroke="#E6AB00" stroke-width="3.6" stroke-linejoin="round"></path>
                    <path d="M9.82594936e-05,0.894611392 L177.357502,0.894611392 L9.82594936e-05,0.894611392 Z" id="Fill-60" fill="#DDAD26"></path>
                    <path d="M9.82594936e-05,0.894611392 L177.357502,0.894611392" id="Stroke-61" stroke="#E6AB00" stroke-width="3.6" stroke-linejoin="round"></path>
                    <path d="M9.82594936e-05,35.1789209 L177.357502,35.1789209 L9.82594936e-05,35.1789209 Z" id="Fill-62" fill="#DDAD26"></path>
                    <path d="M9.82594936e-05,35.1789209 L177.357502,35.1789209" id="Stroke-63" stroke="#E6AB00" stroke-width="3.6" stroke-linejoin="round"></path>
                </g>
            </g>
        </g>
    </g>
</svg>